<?xml version="1.0" standalone="no"?>
<!DOCTYPE svg PUBLIC "-//W3C//DTD SVG 20010904//EN"
 "http://www.w3.org/TR/2001/REC-SVG-20010904/DTD/svg10.dtd">
<svg version="1.0" xmlns="http://www.w3.org/2000/svg"
 width="40" height="40" viewBox="0 0 1280.000000 768.000000"
 preserveAspectRatio="xMidYMid meet">
<metadata>
Created by potrace 1.15, written by Peter Selinger 2001-2017
</metadata>
<g transform="translate(0.000000,768.000000) scale(0.100000,-0.100000)"
fill="#000000" stroke="none">
<path d="M8080 7665 c-109 -15 -418 -125 -484 -172 -49 -35 -85 -91 -66 -103
19 -12 161 -1 275 20 55 11 146 25 201 31 99 12 103 12 175 -14 41 -15 92 -31
114 -36 22 -5 119 -32 215 -60 183 -54 223 -74 287 -145 43 -47 36 -53 -45
-38 -39 7 -62 5 -105 -8 -56 -17 -57 -17 -104 6 -57 28 -83 29 -124 8 -20 -10
-53 -14 -101 -13 -53 2 -74 -2 -82 -13 -6 -8 -24 -29 -39 -48 l-28 -33 -33 32
c-17 17 -38 31 -45 31 -7 0 -32 -16 -57 -36 l-44 -36 -47 16 c-64 22 -80 20
-97 -11 -11 -22 -21 -28 -51 -29 -30 -1 -44 -8 -66 -35 -26 -33 -30 -34 -88
-31 -59 3 -61 3 -61 -22 0 -14 5 -28 11 -32 16 -9 155 -22 364 -33 122 -6 217
-17 295 -34 63 -14 142 -28 175 -32 91 -11 269 -65 475 -146 501 -195 473
-182 610 -280 59 -42 165 -101 280 -156 183 -88 344 -182 429 -251 46 -38 76
-92 87 -159 9 -60 -15 -73 -131 -73 -71 0 -97 -4 -122 -19 -63 -39 -51 -84 38
-148 48 -34 49 -36 33 -54 -16 -18 -109 -51 -221 -79 -23 -6 -49 -20 -57 -32
-9 -12 -17 -20 -20 -17 -2 2 -22 41 -45 87 -23 45 -43 82 -45 82 -2 0 -23 -16
-46 -35 -45 -37 -70 -42 -132 -25 -50 14 -60 36 -52 114 6 55 3 71 -19 119
-15 32 -37 63 -54 73 -15 9 -51 32 -78 51 -60 40 -71 40 -119 8 -20 -14 -40
-25 -43 -25 -3 0 -29 22 -58 49 -29 27 -88 67 -131 89 -43 22 -88 47 -99 55
-18 14 -24 11 -86 -47 -85 -80 -131 -96 -214 -71 -146 42 -198 81 -210 158 -9
55 -41 127 -56 127 -7 0 -45 -34 -84 -76 -94 -100 -109 -99 -113 9 -2 42 -6
77 -10 77 -5 0 -26 -37 -47 -81 -62 -126 -101 -144 -188 -89 -72 45 -87 77
-88 190 -2 150 -17 178 -64 115 -24 -30 -29 -50 -36 -130 -5 -52 -14 -106 -19
-120 -11 -29 -71 -59 -100 -50 -31 10 -43 87 -31 198 13 115 13 107 2 107 -16
0 -69 -94 -86 -155 -24 -84 -51 -132 -83 -148 -54 -26 -299 -90 -323 -84 -15
4 -37 26 -58 62 -18 30 -40 55 -49 55 -37 0 -82 -42 -111 -105 -34 -72 -73
-106 -152 -134 -30 -10 -79 -31 -109 -45 -70 -33 -104 -33 -134 -1 -22 23 -46
85 -46 118 0 9 -4 27 -10 42 l-10 26 -42 -22 c-68 -34 -123 -83 -207 -187 -43
-53 -88 -106 -100 -116 -21 -19 -21 -19 -21 5 0 13 4 39 10 58 l9 33 -54 -4
c-69 -6 -123 -42 -159 -107 -14 -27 -47 -109 -72 -182 -49 -145 -81 -219 -94
-219 -10 0 -14 14 -30 92 -6 32 -19 67 -29 79 -16 20 -21 21 -53 10 -20 -6
-42 -19 -50 -29 -22 -25 -57 -179 -70 -306 -11 -108 -12 -110 -25 -76 -21 54
-27 63 -72 98 -39 29 -49 32 -115 32 -40 0 -75 3 -79 6 -3 3 0 22 7 42 15 42
7 130 -14 175 -8 17 -40 44 -79 67 -36 21 -72 48 -79 59 -11 18 -8 26 25 61
47 53 88 77 263 150 148 63 334 157 469 238 107 64 475 250 540 273 29 10 95
26 145 34 89 16 356 65 466 86 32 6 82 28 118 50 35 21 72 39 84 39 11 0 80
13 152 29 72 16 154 33 181 37 28 3 61 11 75 16 35 13 80 58 80 80 0 15 -8 18
-42 18 -61 0 -116 17 -167 53 -43 29 -45 30 -93 18 -47 -13 -49 -12 -69 13
-23 30 -68 34 -109 11 -34 -20 -66 -18 -82 3 -21 30 -36 34 -61 17 -23 -15
-25 -14 -41 10 -13 20 -25 25 -56 25 -32 0 -43 -6 -64 -32 -23 -29 -26 -30
-26 -12 0 11 -9 29 -20 39 -23 21 -79 17 -131 -9 -32 -16 -33 -16 -59 9 -26
25 -27 25 -70 10 -25 -9 -67 -26 -95 -40 -45 -22 -78 -29 -112 -26 -7 1 -17
10 -23 21 -9 17 -4 26 32 63 24 24 59 62 79 84 50 56 263 163 410 205 113 33
116 33 304 31 181 -2 194 -3 280 -32 50 -16 117 -41 150 -55 57 -24 145 -35
145 -18 0 21 -128 181 -158 195 -39 20 -136 51 -297 94 -136 36 -145 37 -342
41 -155 2 -215 -1 -260 -12 -32 -8 -119 -27 -193 -41 -192 -37 -241 -52 -266
-83 -12 -14 -55 -40 -95 -57 -62 -26 -75 -35 -83 -60 -14 -50 -22 -59 -54 -69
-28 -8 -38 -4 -84 28 -29 20 -60 36 -69 36 -36 0 -234 -72 -340 -124 -111 -54
-241 -147 -406 -290 -34 -30 -97 -73 -140 -97 -48 -26 -101 -66 -138 -104 -55
-57 -65 -63 -113 -69 -73 -9 -79 -13 -86 -50 -9 -47 -38 -69 -156 -120 -120
-52 -182 -106 -198 -172 -5 -22 -17 -73 -27 -114 -20 -86 -28 -100 -61 -100
-26 0 -54 -43 -54 -83 0 -13 20 -66 44 -118 24 -52 51 -119 59 -149 12 -39 28
-67 57 -95 23 -22 62 -68 87 -102 25 -34 59 -67 74 -73 23 -10 32 -25 50 -79
11 -36 37 -94 55 -129 19 -35 32 -68 28 -73 -3 -6 3 -17 13 -24 56 -39 191
-161 307 -278 129 -130 133 -133 226 -170 52 -21 124 -54 160 -73 l65 -35 -46
6 c-26 3 -81 16 -123 29 l-76 24 0 -22 c0 -11 14 -41 30 -66 32 -49 37 -69 18
-88 -16 -16 -80 -15 -103 2 -11 8 -25 12 -32 9 -21 -8 -138 35 -236 86 -50 27
-139 64 -197 82 -127 38 -143 46 -248 120 -45 33 -88 59 -96 59 -7 0 -25 -9
-40 -21 -37 -29 -78 -18 -119 34 -17 22 -67 75 -110 116 -44 42 -88 93 -98
114 -11 21 -40 52 -65 70 -54 38 -81 86 -119 212 -15 50 -54 141 -86 203 -33
62 -59 120 -59 128 0 9 -48 106 -107 216 -93 175 -108 209 -119 278 -13 85
-20 103 -70 171 -28 38 -41 48 -74 53 -37 6 -40 8 -40 40 0 18 7 53 15 76 8
23 15 61 15 84 0 22 7 63 15 90 8 27 15 71 15 98 0 26 13 89 30 140 17 51 44
174 61 273 32 194 46 232 124 348 25 37 45 70 45 72 0 12 -40 3 -61 -14 -48
-38 -187 -245 -218 -325 -16 -42 -43 -98 -59 -124 -38 -60 -45 -82 -86 -287
-19 -93 -46 -224 -60 -290 -14 -66 -26 -141 -26 -167 0 -26 -6 -52 -12 -58 -7
-5 -25 -19 -40 -31 -42 -31 -44 -72 -13 -238 50 -272 80 -372 153 -516 37 -74
61 -106 135 -178 l89 -87 -16 -41 c-17 -41 -15 -50 14 -84 10 -11 23 -42 29
-69 17 -70 33 -96 137 -233 112 -145 207 -226 344 -292 91 -43 99 -45 173 -43
43 1 85 -2 94 -6 8 -5 27 -33 42 -63 21 -44 39 -62 98 -102 93 -62 558 -280
691 -323 56 -19 126 -46 155 -61 48 -25 62 -27 177 -28 132 -1 146 -5 210 -55
26 -21 61 -33 141 -49 119 -24 160 -26 176 -10 15 15 158 -129 223 -226 29
-44 68 -99 87 -122 l34 -43 -23 -9 c-13 -5 -45 -19 -71 -30 -61 -26 -107 -27
-157 -1 -21 11 -72 25 -112 31 -40 6 -127 20 -193 30 -88 14 -185 21 -355 23
-129 2 -278 9 -331 15 -69 9 -158 9 -325 2 -126 -6 -318 -14 -427 -17 -123 -5
-200 -11 -206 -18 -4 -6 -13 -42 -19 -80 -6 -38 -16 -74 -21 -79 -7 -7 -31 -2
-73 14 -86 32 -163 29 -301 -10 -118 -34 -163 -54 -247 -111 -30 -20 -83 -52
-117 -70 -36 -19 -71 -46 -82 -64 -20 -31 -20 -31 1 -53 l21 -23 -97 -45 c-64
-30 -120 -66 -169 -108 -40 -34 -109 -93 -155 -131 -97 -80 -193 -190 -229
-261 -14 -27 -36 -64 -49 -82 -30 -40 -30 -41 3 -75 24 -25 25 -29 10 -41 -33
-25 -50 -113 -23 -119 12 -2 11 -12 -6 -58 -11 -30 -31 -84 -44 -120 -13 -36
-24 -85 -24 -110 0 -25 -4 -61 -9 -81 -5 -24 -4 -63 5 -110 8 -50 11 -117 7
-205 -5 -115 -3 -139 15 -200 12 -38 24 -89 27 -114 5 -36 15 -52 48 -82 23
-20 43 -36 44 -34 2 2 -4 20 -13 42 -12 28 -19 97 -26 254 -10 198 -9 228 11
384 12 93 31 194 42 225 11 31 30 89 40 130 32 119 36 124 121 145 86 22 117
38 217 116 178 138 441 330 506 370 87 53 104 67 185 155 35 39 80 77 99 86
20 9 59 36 86 61 28 25 78 60 113 77 l63 32 30 -26 c25 -20 41 -25 89 -25 l59
0 -15 -27 c-7 -16 -14 -45 -14 -65 0 -44 -22 -62 -100 -83 -59 -16 -80 -32
-123 -95 -17 -25 -60 -77 -96 -115 -104 -110 -106 -118 -103 -323 2 -95 7
-186 12 -202 7 -25 2 -39 -32 -91 -34 -54 -41 -73 -48 -144 -5 -47 -22 -120
-40 -171 -31 -86 -35 -112 -59 -369 -6 -55 -15 -115 -21 -133 -7 -18 -10 -42
-6 -55 8 -33 42 -66 63 -61 30 8 88 -62 108 -131 19 -68 35 -89 85 -115 19
-10 62 -41 95 -69 32 -28 63 -51 67 -51 4 0 47 -36 95 -81 79 -73 106 -90 265
-168 97 -49 207 -97 245 -109 69 -21 163 -35 163 -23 0 12 -86 59 -170 91 -77
30 -95 43 -185 130 -55 53 -140 124 -190 158 -102 69 -146 112 -270 262 l-86
105 4 55 c3 43 20 91 80 215 44 93 80 185 87 220 6 33 24 101 40 150 49 157
108 359 115 395 4 19 18 55 32 79 22 38 27 60 30 150 2 58 4 127 4 154 l-1 47
63 0 c34 0 89 -5 122 -12 37 -7 173 -12 360 -13 165 -1 345 -7 400 -13 84 -10
378 -35 686 -59 87 -6 130 8 212 71 l49 37 41 -26 c73 -49 99 -46 210 29 94
63 102 66 158 66 67 0 129 22 247 89 59 34 76 40 92 31 11 -6 20 -14 20 -18
-1 -13 -187 -92 -203 -86 -9 3 -34 -2 -57 -12 -36 -16 -42 -24 -56 -73 -15
-51 -14 -159 2 -213 7 -23 -27 -24 -86 -3 -59 21 -67 19 -86 -17 -9 -18 -18
-35 -20 -37 -1 -1 -44 18 -95 43 -73 37 -109 49 -173 57 -45 5 -128 19 -186
29 -258 48 -333 51 -462 17 -95 -26 -128 -47 -128 -84 0 -26 -1 -26 -84 -27
l-60 -1 -27 -73 c-37 -100 -49 -154 -52 -237 -2 -66 1 -77 47 -172 27 -57 47
-105 44 -108 -3 -3 -32 -10 -64 -16 -32 -6 -66 -14 -74 -18 -8 -4 -31 -38 -50
-76 -34 -68 -35 -73 -34 -185 0 -137 12 -171 78 -226 l46 -38 -6 -66 c-6 -63
-5 -68 22 -101 16 -19 47 -60 68 -92 48 -72 111 -127 196 -171 129 -67 353
-139 521 -167 60 -10 97 -10 172 -1 53 7 116 12 140 12 24 0 59 5 78 12 44 15
195 117 233 156 25 27 28 35 21 69 -12 68 -93 209 -155 272 -106 108 -198 160
-428 241 -193 68 -217 90 -183 169 32 76 29 82 -191 323 -83 92 -147 182 -136
193 8 9 262 -57 333 -86 l80 -33 180 -1 c162 0 187 2 245 23 36 12 85 36 110
52 53 36 59 36 111 10 29 -16 49 -19 77 -14 64 12 88 31 161 127 75 101 85
106 181 107 19 0 62 12 95 26 33 15 87 36 120 48 33 13 75 31 94 40 l34 18 -7
-24 c-4 -12 -10 -30 -13 -39 -4 -13 9 -22 54 -39 56 -22 65 -22 263 -14 113 5
286 9 385 9 284 0 509 21 645 60 30 8 80 15 112 15 67 0 151 16 193 38 29 15
29 15 7 23 -25 10 -28 22 -9 38 11 8 18 6 33 -10 10 -12 46 -35 79 -50 51 -25
73 -29 141 -29 l81 0 87 -100 c131 -149 150 -163 200 -155 92 15 119 11 181
-27 76 -46 121 -56 129 -31 5 15 18 18 89 19 75 1 92 5 173 42 129 58 176 66
341 52 132 -11 263 -35 263 -49 0 -12 -70 -53 -191 -112 -177 -87 -316 -205
-362 -308 -28 -65 -20 -160 22 -246 38 -77 60 -94 169 -129 45 -15 82 -31 82
-35 0 -4 -17 -13 -37 -20 -55 -20 -99 -55 -176 -140 -171 -189 -255 -382 -317
-723 -19 -107 -16 -116 38 -133 30 -9 287 14 337 30 22 7 56 16 75 20 19 4 76
20 125 36 104 33 134 57 198 155 24 38 77 107 117 153 71 83 83 103 179 317
53 117 55 176 11 264 -36 71 -36 74 -9 176 31 118 24 161 -45 281 -81 144 -83
151 -42 242 19 42 37 94 40 116 4 22 16 79 28 128 28 115 17 174 -42 232 -22
22 -54 63 -72 91 -30 51 -33 53 -92 63 -99 18 -363 50 -466 57 -168 11 -470
-32 -652 -94 -79 -27 -111 -33 -119 -25 -6 6 -19 47 -29 90 -11 45 -45 133
-80 206 -34 70 -58 131 -55 137 4 6 33 -12 70 -42 62 -52 395 -228 430 -228 9
0 24 18 36 45 11 25 23 45 27 45 5 0 26 -18 47 -40 25 -26 48 -40 65 -40 14 0
41 -5 60 -11 20 -7 162 -15 330 -19 176 -5 341 -14 410 -24 63 -9 180 -23 260
-31 125 -13 287 -44 515 -100 103 -25 134 -28 165 -15 49 20 57 5 62 -118 4
-100 8 -114 51 -218 46 -107 177 -349 222 -409 12 -16 32 -49 44 -72 12 -24
44 -61 72 -83 59 -46 184 -231 176 -258 -3 -10 -21 -54 -40 -99 -40 -95 -322
-510 -424 -625 -89 -100 -97 -118 -79 -163 18 -42 25 -43 57 -9 13 15 59 53
102 86 106 81 321 291 397 387 34 43 75 88 91 100 36 26 64 117 78 248 6 51
19 114 30 139 48 107 15 259 -93 434 l-64 105 43 45 c66 70 110 133 161 231
36 69 61 102 106 142 32 29 77 78 99 109 22 32 59 80 83 108 42 49 45 57 66
173 13 67 36 152 51 189 47 114 47 121 -11 228 -27 52 -75 142 -104 200 -81
156 -113 196 -218 270 -52 37 -100 79 -108 95 -54 103 -136 229 -170 258 -22
19 -69 49 -105 67 -60 30 -68 32 -129 25 -58 -6 -69 -4 -97 16 l-31 22 -78
-22 c-105 -31 -113 -28 -121 37 -4 29 -10 56 -13 59 -3 4 -30 1 -58 -5 -29 -7
-109 -19 -178 -27 -139 -18 -263 -45 -468 -104 -75 -22 -229 -63 -342 -90
-113 -28 -261 -72 -330 -97 -165 -61 -486 -170 -530 -179 l-35 -7 21 23 c188
214 251 309 324 492 26 67 29 69 154 92 107 20 295 86 339 119 68 51 319 195
393 226 169 70 205 93 231 148 11 22 49 58 109 103 50 37 95 72 98 77 3 6 -12
32 -34 58 -44 53 -46 59 -27 67 28 11 257 188 271 209 58 91 98 383 88 630 -8
178 -11 185 -85 203 -34 8 -41 14 -39 30 2 11 4 88 4 170 0 117 -5 169 -21
239 -12 48 -28 131 -37 184 -17 109 -58 221 -110 308 -20 32 -41 79 -45 103
-12 58 -21 67 -82 81 -29 7 -82 24 -120 37 -37 13 -104 30 -150 38 -106 18
-642 29 -762 17 l-90 -10 -58 36 c-32 21 -99 64 -150 96 -215 138 -354 193
-707 282 -162 40 -396 104 -520 140 -210 62 -233 66 -340 70 -65 2 -156 -3
-210 -11z m2741 -946 c36 -10 73 -27 82 -36 20 -23 45 -115 48 -173 3 -70 -3
-207 -8 -185 -13 57 -28 89 -60 127 -20 24 -46 60 -60 81 -13 20 -29 37 -36
37 -44 0 -90 26 -140 78 -57 58 -116 131 -117 144 0 6 149 -31 291 -73z m179
-974 c12 -69 15 -76 39 -81 89 -19 95 -35 87 -229 -5 -117 -3 -172 10 -251 12
-72 14 -113 7 -140 -8 -35 -12 -39 -49 -45 -83 -15 -202 -62 -294 -118 -203
-124 -451 -253 -510 -266 -51 -11 -53 -14 -23 -39 l27 -23 -71 -17 c-39 -10
-85 -16 -104 -14 -37 3 -37 2 -23 111 5 38 11 50 33 62 35 17 262 267 364 399
44 55 96 119 117 141 21 22 50 65 65 95 67 134 151 269 201 320 49 51 94 131
94 166 0 9 4 13 9 10 4 -3 14 -39 21 -81z m750 -2237 c40 -83 59 -108 176
-228 72 -74 149 -163 172 -197 43 -64 125 -151 167 -179 14 -9 45 -47 70 -84
55 -85 168 -185 218 -194 20 -4 39 -11 42 -16 13 -21 -38 -176 -76 -232 -22
-31 -74 -121 -115 -200 -41 -79 -99 -179 -128 -223 -30 -44 -73 -115 -96 -157
-24 -43 -46 -78 -49 -78 -3 1 -28 33 -56 72 -27 40 -69 91 -93 114 -43 42 -43
42 -28 73 9 16 16 41 16 54 0 61 -120 353 -161 393 -23 22 -59 37 -142 60
l-112 31 -3 41 c-3 34 -10 47 -40 72 -20 16 -41 30 -46 30 -6 0 -60 25 -122
55 -78 40 -134 60 -190 70 -221 41 -377 67 -479 80 -62 8 -129 22 -148 30 -20
8 -94 31 -164 50 -151 41 -209 44 -399 16 -160 -24 -217 -43 -318 -109 -96
-64 -136 -67 -243 -23 -80 33 -154 73 -150 82 1 3 30 37 64 74 l63 67 37 -18
c27 -12 62 -17 118 -17 132 0 326 21 390 42 33 11 96 29 141 40 88 22 115 33
248 93 49 23 143 54 209 70 66 15 163 47 216 69 127 54 457 130 696 159 134
17 185 34 225 75 18 19 37 35 40 35 3 0 26 -42 50 -92z m-5490 -619 c0 -5 -9
-9 -20 -9 -34 0 -118 -48 -160 -92 -39 -40 -43 -47 -44 -98 -1 -24 -3 -25 -73
-23 -68 2 -71 1 -77 -23 -4 -13 -10 -24 -14 -24 -4 0 -24 20 -45 44 -37 44
-66 57 -167 69 -21 3 -19 5 16 15 22 6 51 23 65 38 21 23 29 25 69 19 116 -18
254 10 390 79 44 22 60 24 60 5z"/>
</g>
</svg>
