<?xml version="1.0" standalone="no"?>
<!DOCTYPE svg PUBLIC "-//W3C//DTD SVG 20010904//EN"
 "http://www.w3.org/TR/2001/REC-SVG-20010904/DTD/svg10.dtd">
<svg version="1.0" xmlns="http://www.w3.org/2000/svg"
 width="40" height="40" viewBox="0 0 1280.000000 801.000000"
 preserveAspectRatio="xMidYMid meet">
<metadata>
Created by potrace 1.15, written by Peter Selinger 2001-2017
</metadata>
<g transform="translate(0.000000,801.000000) scale(0.100000,-0.100000)"
fill="#000000" stroke="none">
<path d="M9660 8004 c-218 -27 -531 -123 -732 -225 -67 -34 -62 -35 -99 34
-36 69 -145 133 -246 143 -54 6 -66 3 -177 -45 -150 -65 -226 -110 -301 -182
l-60 -57 -55 14 c-95 25 -256 30 -325 10 -181 -53 -291 -160 -324 -314 -15
-73 -14 -213 4 -366 l15 -129 -57 -101 c-267 -475 -570 -941 -703 -1082 -47
-50 -98 -106 -115 -125 -16 -19 -41 -44 -56 -54 -14 -11 -64 -67 -111 -125
-131 -160 -119 -152 -214 -136 -283 50 -577 163 -783 301 -72 48 -205 179
-235 230 -12 21 -96 79 -293 200 -152 94 -291 178 -309 188 -25 13 -67 19
-156 23 -349 17 -529 -126 -618 -492 -11 -49 -24 -96 -27 -104 -3 -8 -4 -58
-3 -110 l1 -96 -38 -18 c-91 -43 -203 -27 -282 40 -97 84 -116 209 -46 304 31
43 92 90 116 90 38 0 135 44 166 76 105 104 -72 250 -261 215 -139 -26 -324
-223 -351 -376 -34 -193 53 -400 254 -604 62 -63 87 -79 220 -145 139 -67 156
-74 233 -80 48 -4 86 -12 91 -19 4 -6 33 -54 65 -106 83 -137 195 -249 296
-297 66 -32 92 -38 160 -42 98 -5 188 14 292 62 l74 35 93 -50 c52 -27 155
-76 230 -109 75 -33 150 -66 167 -75 l30 -15 -27 -43 c-130 -208 -508 -593
-824 -839 -242 -189 -435 -288 -561 -289 -23 -1 -74 -1 -113 -2 -67 -1 -255
37 -255 52 0 9 82 61 182 115 67 37 104 66 163 128 132 140 180 228 244 450
37 128 40 144 35 225 -4 49 -15 120 -26 158 -76 267 -327 587 -535 682 -46 21
-76 27 -143 29 -47 1 -146 12 -220 24 -74 12 -142 22 -150 22 -24 -1 -218 -86
-300 -133 -158 -89 -307 -222 -383 -340 -80 -126 -127 -282 -127 -426 0 -57
-4 -93 -10 -93 -6 0 -36 13 -68 29 -71 36 -222 84 -331 106 -118 24 -259 18
-326 -15 -116 -56 -217 -211 -284 -440 l-31 -104 10 -191 c17 -318 29 -430 61
-573 61 -267 196 -454 403 -558 86 -43 94 -46 151 -40 159 15 252 83 306 225
29 76 36 221 16 318 -32 150 -110 263 -181 263 -27 0 -41 -8 -70 -40 l-36 -40
0 -123 c0 -67 -5 -129 -10 -137 -17 -24 -75 50 -109 139 -61 162 -86 408 -48
494 14 33 20 37 52 37 52 0 88 -18 210 -109 163 -120 239 -142 347 -101 29 11
54 20 54 20 1 0 26 -42 57 -93 251 -421 539 -661 982 -818 119 -43 121 -43
255 -42 282 1 681 40 814 78 244 71 793 307 934 403 67 45 172 104 172 97 0
-18 -367 -596 -485 -763 -177 -252 -455 -493 -792 -686 -69 -40 -100 -50 -205
-71 -241 -46 -370 -59 -613 -59 -400 0 -658 54 -976 204 -260 123 -428 167
-604 157 -119 -7 -229 -39 -325 -94 -97 -56 -232 -196 -330 -341 -98 -147
-184 -236 -266 -277 -51 -26 -70 -30 -139 -30 -71 0 -87 4 -149 35 -123 61
-220 183 -281 351 -45 125 -58 203 -57 344 0 109 4 144 25 215 43 144 78 211
130 248 52 37 107 62 135 62 33 0 68 -47 91 -122 74 -242 72 -238 95 -238 36
0 64 28 86 87 30 81 37 194 15 268 -43 151 -140 291 -231 335 -155 75 -368
-73 -482 -335 -74 -170 -106 -354 -106 -610 0 -158 4 -207 22 -292 55 -255
152 -435 331 -614 121 -121 206 -167 323 -176 45 -3 97 -1 129 7 87 20 244
100 425 216 218 140 421 244 478 244 115 -1 248 -57 476 -201 183 -115 279
-170 357 -203 34 -14 139 -63 235 -109 320 -155 575 -257 642 -257 12 0 55
-11 94 -24 141 -48 225 -61 402 -60 130 0 187 5 270 23 499 105 1012 400 1716
987 323 270 620 628 967 1162 92 142 180 274 196 292 l28 34 60 -27 c137 -61
308 -16 471 126 84 72 174 105 499 181 88 20 184 50 227 70 77 35 167 109 191
157 26 48 54 143 71 234 17 93 29 128 44 123 4 -2 64 -73 133 -158 166 -206
316 -369 473 -515 71 -66 159 -150 196 -187 82 -82 155 -121 438 -230 113 -44
239 -95 280 -115 139 -64 510 -120 730 -109 409 20 670 207 883 633 50 99 60
112 87 118 19 4 36 2 45 -5 12 -10 8 -21 -21 -73 -49 -86 -117 -230 -149 -318
-20 -52 -29 -97 -30 -151 -2 -42 -6 -81 -9 -87 -4 -5 -2 -12 3 -15 5 -4 15
-32 22 -64 24 -112 129 -272 220 -334 91 -62 186 -78 286 -47 42 13 105 83
143 159 28 55 30 66 20 91 -18 43 -105 128 -192 188 -42 29 -79 58 -81 65 -12
31 112 120 278 200 138 67 255 203 326 376 64 159 70 232 27 348 -32 86 -68
142 -142 220 -161 169 -378 276 -564 276 -95 0 -84 -15 -102 136 -50 411 -202
811 -417 1093 -73 96 -249 262 -315 297 -34 19 -118 46 -201 67 -138 34 -145
34 -230 24 -376 -48 -561 -331 -544 -836 9 -279 59 -487 186 -780 38 -88 66
-162 64 -165 -9 -9 -82 83 -113 142 -17 31 -39 83 -49 115 -47 146 -270 713
-577 1470 -52 127 -94 234 -94 236 0 3 17 1 38 -4 20 -5 94 -9 164 -9 371 0
699 135 844 348 138 203 307 531 368 715 69 205 82 384 39 501 -24 65 -92 139
-157 171 -51 25 -57 32 -122 147 -222 392 -484 611 -819 684 -69 15 -296 26
-365 18z"/>
</g>
</svg>
