<?xml version="1.0" standalone="no"?>
<!DOCTYPE svg PUBLIC "-//W3C//DTD SVG 20010904//EN"
 "http://www.w3.org/TR/2001/REC-SVG-20010904/DTD/svg10.dtd">
<svg version="1.0" xmlns="http://www.w3.org/2000/svg"
 width="40" height="40" viewBox="0 0 1280.000000 1168.000000"
 preserveAspectRatio="xMidYMid meet">
<metadata>
Created by potrace 1.15, written by Peter Selinger 2001-2017
</metadata>
<g transform="translate(0.000000,1168.000000) scale(0.100000,-0.100000)"
fill="#000000" stroke="none">
<path d="M2125 11671 c-143 -23 -236 -69 -357 -173 l-58 -50 0 -61 0 -62 -84
-33 c-180 -71 -261 -138 -642 -538 l-153 -161 -35 -129 c-56 -208 -69 -289
-69 -414 0 -103 3 -125 31 -207 34 -99 68 -172 139 -296 l45 -78 -5 -242 c-5
-245 -13 -314 -56 -483 -29 -114 -60 -193 -129 -324 -162 -308 -397 -827 -485
-1072 -91 -250 -181 -637 -227 -975 -86 -626 -25 -1256 192 -1972 244 -812
743 -1728 1314 -2416 346 -416 950 -914 1554 -1280 631 -382 1191 -579 1880
-659 293 -35 405 -40 780 -40 414 0 599 12 926 59 718 104 1021 238 1509 669
490 434 590 529 698 670 51 66 125 158 166 205 40 47 122 143 182 213 60 69
149 164 197 210 73 68 102 105 166 211 42 71 73 134 69 140 -4 7 -31 46 -62
87 l-54 74 22 135 22 135 -29 29 c-16 16 -53 41 -82 55 -30 15 -55 32 -57 38
-2 6 55 32 129 59 308 110 788 299 1095 431 268 114 331 148 703 376 113 69
232 139 265 156 79 39 214 129 348 230 59 45 131 94 158 109 66 35 108 85 163
192 83 162 99 237 60 298 -13 21 -11 30 26 103 62 124 54 196 -37 307 l-34 43
11 112 c17 161 10 178 -97 238 -46 25 -132 81 -193 125 -177 129 -255 167
-424 209 l-89 22 44 34 c24 19 76 61 114 95 39 33 106 90 150 125 193 157 398
377 520 560 113 169 153 265 307 730 l143 435 0 95 c-1 114 -21 170 -108 302
-56 85 -111 140 -174 172 -18 9 -33 21 -33 25 0 20 -106 124 -149 145 -67 34
-115 39 -222 22 -156 -25 -384 -53 -774 -96 -600 -66 -914 -113 -1210 -180
-143 -33 -479 -131 -660 -194 -55 -19 -219 -75 -365 -126 -376 -129 -531 -175
-990 -289 -775 -192 -933 -220 -1281 -228 -467 -11 -912 72 -1244 232 -173 84
-275 161 -604 458 -286 259 -362 319 -606 482 -301 200 -373 269 -526 499
-171 257 -350 664 -444 1010 -20 74 -24 100 -15 116 6 11 33 89 61 173 61 182
63 237 13 334 -39 76 -91 111 -240 160 l-115 38 -160 198 c-89 109 -166 200
-172 203 -7 2 -47 10 -90 18 -77 13 -78 14 -133 75 -83 92 -114 104 -259 107
-66 2 -142 -1 -170 -5z"/>
</g>
</svg>
