<?xml version="1.0" standalone="no"?>
<!DOCTYPE svg PUBLIC "-//W3C//DTD SVG 20010904//EN"
 "http://www.w3.org/TR/2001/REC-SVG-20010904/DTD/svg10.dtd">
<svg version="1.0" xmlns="http://www.w3.org/2000/svg"
 width="40" height="40" viewBox="0 0 1280.000000 1280.000000"
 preserveAspectRatio="xMidYMid meet">
<metadata>
Created by potrace 1.15, written by Peter Selinger 2001-2017
</metadata>
<g transform="translate(0.000000,1280.000000) scale(0.100000,-0.100000)"
fill="#000000" stroke="none">
<path d="M5104 11715 c34 -36 33 -49 -1 -40 -16 4 -91 9 -168 12 l-140 5 29
-31 c16 -17 27 -33 24 -36 -3 -3 -25 2 -49 10 -50 18 -235 30 -244 15 -3 -5 3
-13 12 -19 33 -18 4 -24 -54 -12 -32 7 -83 11 -113 9 l-55 -3 33 -20 c17 -10
32 -22 32 -26 0 -4 -39 -7 -87 -6 -49 0 -108 -6 -132 -12 -24 -7 -55 -10 -69
-6 -23 6 -24 5 -11 -11 12 -15 11 -16 -19 -9 -18 4 -60 4 -93 0 l-60 -7 41
-30 c22 -17 39 -32 38 -34 -2 -2 -44 1 -93 6 -50 5 -101 10 -115 9 l-25 0 28
-23 28 -23 -88 -6 c-48 -4 -98 -10 -111 -13 -20 -6 -19 -8 21 -34 24 -15 47
-36 51 -45 6 -17 0 -18 -78 -12 -80 6 -112 -2 -84 -19 17 -11 -18 -22 -70 -23
-23 -1 -59 -8 -80 -17 l-37 -16 41 -13 c23 -7 51 -19 63 -27 21 -15 14 -16
-91 -23 -112 -8 -113 -8 -80 -23 l33 -16 -82 -18 c-105 -23 -116 -33 -59 -55
40 -16 42 -18 19 -24 -13 -4 -43 -7 -66 -8 -33 -1 -41 -4 -37 -16 3 -8 0 -16
-7 -18 -64 -18 -131 -42 -138 -51 -7 -8 5 -17 35 -30 56 -23 56 -36 2 -36 -60
0 -90 -10 -84 -26 4 -9 -15 -24 -54 -44 -70 -35 -78 -46 -45 -54 14 -4 51 -18
83 -33 l57 -26 -61 -8 c-62 -8 -144 -41 -144 -58 0 -5 16 -15 35 -21 19 -6 35
-15 35 -20 0 -4 -24 -17 -53 -29 -28 -12 -66 -32 -82 -46 l-30 -24 25 -1 c14
0 40 -9 59 -19 l34 -18 -55 -25 c-74 -34 -172 -98 -163 -106 4 -4 36 -14 73
-23 l66 -15 -84 -41 c-47 -23 -101 -55 -120 -72 l-35 -30 40 -1 40 -1 -60 -34
c-33 -18 -67 -38 -75 -43 -10 -6 1 -14 43 -27 32 -10 60 -21 62 -25 3 -4 -31
-28 -76 -54 -44 -26 -77 -51 -74 -56 3 -6 23 -10 43 -10 l37 0 -72 -43 c-40
-24 -75 -46 -78 -49 -3 -3 26 -15 64 -27 39 -12 71 -23 71 -25 0 -2 -38 -30
-85 -61 -85 -56 -97 -75 -47 -75 l26 0 -35 -32 c-20 -18 -47 -52 -62 -74 -14
-23 -42 -51 -61 -64 -54 -33 -49 -40 37 -56 20 -3 37 -10 37 -14 0 -4 -25 -27
-56 -50 -37 -28 -54 -47 -50 -57 3 -8 -7 -34 -24 -58 l-29 -43 22 -6 c12 -3
32 -6 45 -6 19 0 10 -12 -53 -73 -41 -39 -75 -77 -75 -82 0 -6 17 -9 40 -7 22
2 40 1 40 -3 0 -4 -30 -37 -68 -73 l-67 -67 44 -5 45 -5 -57 -54 c-31 -30 -57
-59 -57 -64 0 -6 18 -7 45 -4 25 4 45 5 45 3 0 -2 -21 -16 -47 -31 -27 -15
-56 -35 -67 -44 -17 -15 -17 -16 10 -21 28 -5 28 -6 -30 -47 l-59 -42 44 -3
44 -3 -63 -38 c-59 -37 -77 -57 -49 -57 6 0 -3 -13 -22 -29 -22 -18 -31 -33
-26 -40 5 -8 -9 -29 -36 -57 -31 -31 -38 -44 -26 -44 27 0 20 -17 -27 -68 -24
-26 -41 -52 -39 -59 2 -6 -10 -22 -26 -34 -17 -13 -31 -28 -31 -35 0 -7 -31
-40 -70 -75 -69 -61 -81 -84 -58 -107 30 -30 172 -2 212 41 14 15 31 27 39 27
7 0 24 11 37 25 13 14 29 25 36 25 8 0 36 20 64 45 28 25 57 45 66 45 8 0 37
21 65 47 48 44 50 46 56 24 6 -22 7 -21 44 15 35 35 39 36 39 16 0 -32 14 -27
53 18 40 47 47 49 47 15 0 -34 16 -32 78 10 54 37 62 33 42 -19 -12 -33 -8
-33 47 5 l46 32 -7 -28 -7 -27 28 19 c26 18 150 63 174 63 7 0 5 -10 -5 -25
-23 -35 -21 -38 26 -31 26 4 44 3 48 -4 5 -8 20 -7 51 4 50 17 59 14 33 -11
-17 -17 -15 -18 50 -21 42 -2 86 3 112 12 24 8 44 12 44 9 0 -3 -10 -23 -22
-44 -12 -21 -19 -42 -15 -45 3 -3 35 -1 70 5 86 15 115 15 99 -1 -7 -7 -12
-21 -12 -33 0 -19 6 -21 75 -20 45 0 79 5 87 13 18 18 25 15 24 -10 -1 -30 40
-36 84 -13 l31 16 -7 -26 c-8 -32 -2 -32 63 5 29 17 53 28 53 26 0 -3 -4 -16
-10 -30 -5 -14 -6 -27 -2 -30 4 -2 32 6 62 19 30 13 56 22 58 20 2 -2 -4 -17
-13 -34 -8 -17 -13 -31 -10 -31 3 0 33 12 66 26 67 28 82 26 53 -7 l-19 -22
44 6 c24 3 66 17 93 31 27 14 52 26 55 26 2 0 2 -14 -2 -30 -5 -22 -3 -32 8
-36 13 -5 11 -19 -14 -92 -306 -903 -315 -2125 -23 -3034 169 -526 533 -1298
799 -1695 33 -50 42 -72 44 -114 2 -46 -1 -54 -32 -82 -22 -22 -58 -40 -113
-56 -267 -79 -417 -142 -515 -215 -193 -144 -208 -353 -37 -511 233 -216 1006
-396 2058 -480 419 -33 627 -40 1190 -39 602 0 816 8 1310 50 625 52 1199 155
1570 281 255 86 391 177 452 301 30 62 32 187 4 245 -41 83 -157 185 -266 235
-135 61 -344 128 -520 167 -41 9 -112 28 -158 41 -97 29 -117 52 -128 146 -4
39 -10 55 -18 51 -17 -11 8 21 127 163 375 447 839 1149 1013 1534 201 445
392 1131 440 1580 20 186 23 672 5 830 -48 427 -135 730 -305 1056 -117 224
-260 411 -458 600 -155 148 -319 246 -745 448 -279 132 -387 177 -578 240
-339 111 -651 178 -1027 221 l-58 6 0 39 c0 101 185 628 356 1015 37 85 57
147 68 210 18 108 36 288 36 361 0 50 -2 55 -32 71 -25 13 -57 17 -128 18
-113 0 -194 -22 -243 -65 -30 -26 -35 -37 -40 -92 -6 -64 -65 -394 -90 -504
l-14 -59 -214 -14 c-118 -7 -305 -14 -415 -15 l-202 -1 -27 29 -27 29 -18 -23
c-18 -24 -18 -24 -41 -5 -26 24 -58 91 -59 123 0 15 -21 44 -55 79 -46 47 -57
54 -70 43 -13 -10 -24 -3 -73 48 -48 50 -78 70 -175 115 -75 36 -138 74 -175
106 -53 46 -93 67 -77 40 4 -6 -13 4 -37 23 -24 18 -62 42 -86 52 -42 19 -66
16 -44 -6 7 -7 12 -16 12 -20 0 -4 -34 17 -76 47 -78 56 -94 63 -94 44 0 -5
-19 2 -42 16 -49 30 -124 65 -140 65 -6 0 -3 -9 7 -20 25 -28 13 -25 -47 12
-30 19 -68 33 -88 34 -19 1 -62 12 -95 25 -47 18 -82 23 -160 24 -55 1 -124 5
-153 10 l-54 8 26 -28z m2660 -1002 c-13 -56 -57 -189 -71 -218 -60 -120 -261
-459 -289 -486 l-33 -32 -123 22 c-68 12 -167 28 -221 36 -53 8 -102 17 -109
21 -8 5 -8 34 -2 103 5 53 9 155 9 226 0 88 5 142 14 167 11 28 12 45 4 71
-13 44 -5 56 43 67 51 12 542 45 707 49 l77 1 -6 -27z"/>
</g>
</svg>
