<svg xmlns="http://www.w3.org/2000/svg" width="40" height="40"   viewBox="0 0 133.27 109.56"><defs><style>.cls-1{fill:#ce1a26;}.cls-1,.cls-2,.cls-3,.cls-4,.cls-5,.cls-6{fill-rule:evenodd;}.cls-2{fill:#d94751;}.cls-3{fill:#6b9b1f;}.cls-4{fill:#87912d;}.cls-5{fill:#78a30f;}.cls-6{fill:#8eb70f;}</style></defs><g id="Layer_2" data-name="Layer 2"><g id="Layer_1-2" data-name="Layer 1"><path class="cls-1" d="M19.79,23.91c12-12.73,28.71,12.34,46.32,24.94C86.36,63.34,112,70.57,121,74.71c11.9,5.49,13.88,11.79,11.26,12.76-2.13.79-7-7.52-14.12-5.62-9.61,2.6-49.61,2.2-70.56-9.78C27.39,60.54,6.35,38.22,19.79,23.91Z"/><path class="cls-2" d="M28.6,28.75c7.58-2.53,13.27,13.83,26.17,23.85,19.31,15,48.2,20.11,55.58,21.16,8.91,1.28,15.88,6.07,13.21,6.07-2.28,0-9.58-3.71-15.65-2.72-7.42,1.22-39.53,1.49-62.31-12C30.51,56.16,17.15,32.56,28.6,28.75Z"/><path class="cls-2" d="M21.73,35.46c2.24.48.61,3.14,3.06,10.67.92,2.85,5.26,7.68,3.44,7.2C21.74,51.62,14.7,33.92,21.73,35.46Z"/><path class="cls-3" d="M14.73,33.55c-.24,3.09,1,1.19,2.17-.16s1.58-.32,2.69,1.11,1.28-1.72,1.76-3.28a4.11,4.11,0,0,1,4-2.84c2.08,0,1.43-1.23,1.4-2.92s.6-2.9,3.48-3.79S33,20.26,28.69,20C20.06,19.5,15.24,27.05,14.73,33.55Z"/><path class="cls-4" d="M23.27,20.85a1.59,1.59,0,0,1,1,.63c.73,1.06-.16,2.93-2,4.19s-3.9,1.44-4.62.38a1.42,1.42,0,0,1-.2-.41A12.86,12.86,0,0,1,23.27,20.85Z"/><path class="cls-3" d="M24,22.23c.64,1.4-4.37,5.61-5.39,3.38-2.79-6-6.67-21.69.67-25,4.81-2.18,8.21,2,10.33,6.3,1.14,2.36-1.48,2.59-2.12,1.27-1.67-3.4-4.34-5.95-6.84-4.48C15.74,6.59,22.52,19.08,24,22.23Z"/><path class="cls-5" d="M82.24,63.46c-8.66-9.23-20.81,8.94-33.57,18.07C34,92,15.4,97.27,8.9,100.27c-8.62,4-10.06,8.54-8.16,9.25,1.54.57,5.11-5.45,10.23-4.07,7,1.88,36,1.59,51.14-7.09C76.73,90,92,73.83,82.24,63.46Z"/><path class="cls-6" d="M75.85,67c-5.49-1.83-9.61,10-19,17.29C42.9,95.1,22,98.82,16.61,99.58,10.15,100.51,5.1,104,7,104c1.65,0,6.94-2.69,11.34-2,5.37.88,28.64,1.08,45.15-8.7C74.47,86.83,84.15,69.72,75.85,67Z"/><path class="cls-6" d="M80.83,71.82c-1.62.36-.44,2.28-2.21,7.74-.67,2.07-3.82,5.56-2.5,5.22C80.82,83.54,85.93,70.71,80.83,71.82Z"/><path class="cls-3" d="M85.9,70.44c.18,2.24-.71.86-1.57-.11s-1.15-.23-2,.8-.92-1.25-1.27-2.38a3,3,0,0,0-2.94-2.06c-1.5,0-1-.89-1-2.11s-.43-2.1-2.52-2.75-2-1,1.16-1.2C82.05,60.26,85.53,65.73,85.9,70.44Z"/><path class="cls-4" d="M79.71,61.24a1.15,1.15,0,0,0-.74.46c-.53.76.11,2.12,1.44,3s2.82,1,3.34.27a.83.83,0,0,0,.14-.3A9.31,9.31,0,0,0,79.71,61.24Z"/><path class="cls-3" d="M79.2,62.24c-.46,1,3.16,4.07,3.91,2.45,2-4.37,4.83-15.72-.49-18.13-3.48-1.57-6,1.42-7.48,4.57-.83,1.71,1.07,1.88,1.54.92,1.2-2.46,3.13-4.31,4.95-3.24C85.17,50.9,80.26,60,79.2,62.24Z"/></g></g></svg>