<svg xmlns="http://www.w3.org/2000/svg" xmlns:xlink="http://www.w3.org/1999/xlink" width="40" height="40"   viewBox="0 0 167.85 300.31"><defs><style>.cls-1{isolation:isolate;}.cls-2{fill:#f46270;}.cls-3{fill:#d65466;}.cls-4{fill:#e04f64;}.cls-5{fill:#f9a0b1;}.cls-6{fill:#fcf0ff;}.cls-7{fill:#db4d62;}.cls-8{fill:#0d1e23;}.cls-9{fill:#dcf0ee;}.cls-10,.cls-11{fill:#c64255;}.cls-10,.cls-19,.cls-20{opacity:0.5;}.cls-12{fill:#191919;opacity:0.3;}.cls-13,.cls-18{opacity:0.2;}.cls-13{mix-blend-mode:multiply;}.cls-14,.cls-17,.cls-18,.cls-19{fill:#fff;}.cls-15{fill:#ff9f00;}.cls-16{fill:#ef6100;}.cls-17{opacity:0.7;}.cls-21,.cls-22{fill:#f9cad5;}.cls-21{opacity:0.4;}.cls-23{fill:#ffc0cf;}.cls-24,.cls-25,.cls-26,.cls-27{mix-blend-mode:screen;}.cls-24{fill:url(#linear-gradient);}.cls-25{fill:url(#linear-gradient-2);}.cls-26{fill:url(#linear-gradient-3);}.cls-27{fill:url(#linear-gradient-4);}</style><linearGradient id="linear-gradient" x1="-1134.33" y1="526.38" x2="-1134.33" y2="649.28" gradientTransform="translate(-1066.74 676.1) rotate(-179.21)" gradientUnits="userSpaceOnUse"><stop offset="0" stop-color="#854b11"/><stop offset="0.77" stop-color="#201204"/><stop offset="1"/></linearGradient><linearGradient id="linear-gradient-2" x1="-1133.89" y1="530.37" x2="-1133.89" y2="628.34" gradientTransform="translate(-1066.74 676.1) rotate(-179.21)" gradientUnits="userSpaceOnUse"><stop offset="0" stop-color="#85501b"/><stop offset="0.14" stop-color="#7e4c1a"/><stop offset="0.34" stop-color="#6a4016"/><stop offset="0.58" stop-color="#492c0f"/><stop offset="0.85" stop-color="#1c1106"/><stop offset="1"/></linearGradient><linearGradient id="linear-gradient-3" x1="-1068.73" y1="984.41" x2="-1068.73" y2="1046.68" gradientTransform="matrix(-1, 0.05, -0.03, -0.69, -953.49, 955.62)" xlink:href="#linear-gradient"/><linearGradient id="linear-gradient-4" x1="-1068.73" y1="985.97" x2="-1068.73" y2="1019.81" gradientTransform="matrix(-1, 0.05, -0.03, -0.69, -953.49, 955.62)" xlink:href="#linear-gradient-2"/></defs><g class="cls-1"><g id="Layer_2" data-name="Layer 2"><g id="Layer_1-2" data-name="Layer 1"><path class="cls-2" d="M51.83,222.34s-6.91,18.91-3.39,31.1c0,0,2.92,6.66-4.6,16,0,0-4.35,3.5-5.48,12.51,0,0,1.19,9-6.95,8.44,0,0-4.35,1.18,0,2.91,0,0,10.76,2.58,12.17-9.33,0,0,1.13-9.59,12.74-12.53,0,0,10.74-5.26,7.21-19.48S66.07,224,66.07,224Z"/><path class="cls-2" d="M79.44,226.33S72.22,242.61,88.81,253c0,0,8.18,2.13,9.36,10.55a10.45,10.45,0,0,0,9.73,10s6.53.3,8,10.46c0,0,.88,5.22,5.24,5.5,0,0,8.68-2.73,1.65-4.56,0,0-4.27,2.53-4.59-8.5,0,0-1.56-4.86-10.24-8.5,0,0-3.44-.76-5.22-12.95s-.93-18.29-.93-18.29l-16.6-16.8Z"/><path class="cls-2" d="M74.81,232.15s7.9,19.15-1.64,36.31c0,0-7.21,15.42.66,25.56a13,13,0,0,0,7.28,6.08s3.78,2-2.34-6.38c0,0-8.76-13.05,1.08-26.15,0,0,19.1-22.72,12.36-44.19s-15.71-7.21-15.71-7.21l-4.33,8.15Z"/><path class="cls-3" d="M70.55,221.59s-4.62,13.74,9.37,22,20.74,4.18,30.5,11.54,2.69-8.74-2.82-15.43-27-44.66-35.83-17.84"/><path class="cls-3" d="M50.33,222.43s-5.14,7,1.35,14.3S62.77,242.89,67,248.87s3.13-4.51,1.2-9.33S60.91,209.13,51,222.84"/><path class="cls-4" d="M85.5,248.28c1.35,2.06,1.08,4.6-.58,5.7s-4.11.31-5.45-1.75-1.08-4.6.58-5.69S84.16,246.23,85.5,248.28Z"/><path class="cls-5" d="M85,248.59c1.26,1.93,1.07,4.27-.41,5.25s-3.71.2-5-1.72-1.07-4.27.41-5.25S83.77,246.67,85,248.59Z"/><path class="cls-6" d="M83.74,249.44c.89,1.38.76,3.05-.3,3.75s-2.65.14-3.55-1.23-.77-3.05.29-3.75S82.84,248.07,83.74,249.44Z"/><path class="cls-4" d="M82.66,250.14a1.05,1.05,0,1,1-1.57-.54A1.2,1.2,0,0,1,82.66,250.14Z"/><path class="cls-4" d="M77.41,270.63a2,2,0,1,1-.56-3.11A2.26,2.26,0,0,1,77.41,270.63Z"/><path class="cls-5" d="M77.14,270.48A1.84,1.84,0,1,1,74,268.77a1.83,1.83,0,1,1,3.11,1.71Z"/><path class="cls-6" d="M76.39,270.07a1.31,1.31,0,1,1-.32-2.05A1.5,1.5,0,0,1,76.39,270.07Z"/><path class="cls-4" d="M75.77,269.73a.67.67,0,0,1-.85.36.75.75,0,0,1,.71-1.27A.67.67,0,0,1,75.77,269.73Z"/><path class="cls-4" d="M74.83,278.51a1.93,1.93,0,1,1-1.14-2.77A2.14,2.14,0,0,1,74.83,278.51Z"/><path class="cls-5" d="M74.54,278.42a1.74,1.74,0,1,1-1-2.57A2,2,0,0,1,74.54,278.42Z"/><path class="cls-6" d="M73.77,278.19a1.42,1.42,0,0,1-1.6,1.14,1.4,1.4,0,0,1-.71-1.83,1.25,1.25,0,1,1,2.31.69Z"/><path class="cls-4" d="M73.12,278a.55.55,0,1,1-1-.31.55.55,0,1,1,1,.31Z"/><path class="cls-4" d="M74.81,284.79A2.05,2.05,0,1,1,72,283.35,2.28,2.28,0,0,1,74.81,284.79Z"/><path class="cls-5" d="M74.52,284.92a1.85,1.85,0,1,1-2.58-1.39A2.1,2.1,0,0,1,74.52,284.92Z"/><path class="cls-6" d="M73.74,285.27a1.32,1.32,0,1,1-1.85-1A1.5,1.5,0,0,1,73.74,285.27Z"/><path class="cls-4" d="M73.08,285.56a.58.58,0,1,1-.81-.44A.66.66,0,0,1,73.08,285.56Z"/><path class="cls-4" d="M77.44,292a1.92,1.92,0,1,1-2.85-.89A2.14,2.14,0,0,1,77.44,292Z"/><path class="cls-5" d="M77.2,292.15a1.73,1.73,0,1,1-2.6-.89A2,2,0,0,1,77.2,292.15Z"/><path class="cls-6" d="M76.52,292.59a1.24,1.24,0,1,1-1.86-.63A1.41,1.41,0,0,1,76.52,292.59Z"/><path class="cls-4" d="M76,293a.55.55,0,1,1-.82-.28A.63.63,0,0,1,76,293Z"/><path class="cls-4" d="M99.83,255.32a2,2,0,1,1-2.4-2.06A2.27,2.27,0,0,1,99.83,255.32Z"/><path class="cls-5" d="M99.52,255.37A2.09,2.09,0,0,1,98.19,258c-1,.18-1.93-.69-2.16-1.94a1.83,1.83,0,1,1,3.49-.64Z"/><path class="cls-6" d="M98.68,255.53a1.31,1.31,0,1,1-1.54-1.39C97.83,254,98.52,254.63,98.68,255.53Z"/><path class="cls-4" d="M98,255.65a.58.58,0,1,1-1.11.2.66.66,0,0,1,.42-.81C97.61,255,97.91,255.26,98,255.65Z"/><path class="cls-4" d="M102.81,263.05a1.93,1.93,0,1,1-2.64-1.43A2.15,2.15,0,0,1,102.81,263.05Z"/><path class="cls-5" d="M102.53,263.16a1.74,1.74,0,1,1-2.39-1.36A2,2,0,0,1,102.53,263.16Z"/><path class="cls-6" d="M101.78,263.47a1.24,1.24,0,1,1-2.22.92,1.24,1.24,0,1,1,2.22-.92Z"/><path class="cls-4" d="M101.16,263.73a.55.55,0,1,1-.75-.43A.61.61,0,0,1,101.16,263.73Z"/><path class="cls-4" d="M106.59,267.88a2.05,2.05,0,1,1-1.81,3.59,2.05,2.05,0,1,1,1.81-3.59Z"/><path class="cls-5" d="M106.45,268.16a1.85,1.85,0,1,1-2.88.56A2.11,2.11,0,0,1,106.45,268.16Z"/><path class="cls-6" d="M106.06,268.93a1.32,1.32,0,1,1-2.06.4A1.5,1.5,0,0,1,106.06,268.93Z"/><path class="cls-4" d="M105.74,269.57a.59.59,0,1,1-.51,1,.66.66,0,0,1-.4-.83A.67.67,0,0,1,105.74,269.57Z"/><path class="cls-4" d="M114,272a1.92,1.92,0,1,1-3,.05A2.13,2.13,0,0,1,114,272Z"/><path class="cls-5" d="M113.78,272.26a1.73,1.73,0,1,1-2.74,0A2,2,0,0,1,113.78,272.26Z"/><path class="cls-6" d="M113.28,272.9a1.24,1.24,0,1,1-2,0A1.4,1.4,0,0,1,113.28,272.9Z"/><path class="cls-4" d="M112.87,273.42a.62.62,0,0,1,.21.84.63.63,0,0,1-.87,0,.64.64,0,0,1-.21-.85A.63.63,0,0,1,112.87,273.42Z"/><path class="cls-4" d="M117.59,277.44a1.45,1.45,0,1,1-2.13-.72A1.61,1.61,0,0,1,117.59,277.44Z"/><path class="cls-5" d="M117.4,277.56a1.31,1.31,0,1,1-1.94-.71A1.48,1.48,0,0,1,117.4,277.56Z"/><path class="cls-6" d="M116.89,277.89a.93.93,0,1,1-1.39-.51A1.06,1.06,0,0,1,116.89,277.89Z"/><path class="cls-4" d="M116.46,278.15a.41.41,0,1,1-.67.43.41.41,0,1,1,.67-.43Z"/><path class="cls-4" d="M118.66,282.66a1.45,1.45,0,1,1-2.14-.72A1.61,1.61,0,0,1,118.66,282.66Z"/><path class="cls-5" d="M118.47,282.78a1.31,1.31,0,1,1-1.94-.71A1.49,1.49,0,0,1,118.47,282.78Z"/><path class="cls-6" d="M118,283.11a.93.93,0,1,1-1.53,1,1.05,1.05,0,0,1,.14-1.47A1.06,1.06,0,0,1,118,283.11Z"/><path class="cls-4" d="M117.53,283.38a.41.41,0,1,1-.68.42.48.48,0,0,1,.06-.65A.47.47,0,0,1,117.53,283.38Z"/><path class="cls-4" d="M121.16,286.15a1.45,1.45,0,1,1-2.21.45A1.61,1.61,0,0,1,121.16,286.15Z"/><path class="cls-5" d="M121.06,286.34a1.51,1.51,0,0,1,.87,1.89,1.7,1.7,0,1,1-.87-1.89Z"/><path class="cls-6" d="M120.78,286.88a.94.94,0,1,1-.84,1.61.94.94,0,1,1,.84-1.61Z"/><path class="cls-4" d="M120.54,287.33a.42.42,0,1,1-.37.71.41.41,0,1,1,.37-.71Z"/><path class="cls-7" d="M89.1,155.43s-4.88,20.92,7.64,29a14.51,14.51,0,0,0,3.43-14.83S98.4,158.59,89.1,155.43Z"/><path class="cls-8" d="M100.17,169.62a22.76,22.76,0,0,0-3-7.55c-3.69,1-1,10.93,2.72,11.91a4.92,4.92,0,0,0,1,.15A15,15,0,0,0,100.17,169.62Z"/><path class="cls-9" d="M100,169.56a22.41,22.41,0,0,0-2.29-6.23,11.43,11.43,0,0,0,2.88,8.87A15.43,15.43,0,0,0,100,169.56Z"/><path class="cls-7" d="M60.28,156.4s9.68,19.18-.57,30a14.52,14.52,0,0,1-6.85-13.59S52,161.67,60.28,156.4Z"/><path class="cls-8" d="M52.86,172.82a23,23,0,0,1,1.13-8c3.83.11,3.57,10.38.17,12.21a4.58,4.58,0,0,1-1,.39A15.07,15.07,0,0,1,52.86,172.82Z"/><path class="cls-9" d="M53,172.71a22.27,22.27,0,0,1,.75-6.59,11.41,11.41,0,0,1-.7,9.29A15,15,0,0,1,53,172.71Z"/><path class="cls-5" d="M60.05,156.39A61.66,61.66,0,0,1,59,186s-6.37,6.41-6.92,18.61c0,0-3.4,27.31-24.3,30.28,0,0-21.5-2.84-20.24,30.27,0,0,1.78,12.19-7.52,11.06,0,0,11.05,4,12.75-9.33,0,0,4-26.74,17.35-25,0,0,20.34,1.11,28.43-13.44,0,0-8.93,23.55,8.8,29.88,0,0,12.79,3.16,13.41,14.2,0,0-2.27,18,14.58,19.41,0,0,11.91-.33,7.52-9.6,0,0-1.46-3.49-2.9,0,0,0,.89,7.26-7.84,2.06a10.88,10.88,0,0,1-.62-11.91s4-12.79-7-15.08c0,0-16.28-5.47-11.67-14.49,0,0,.29-2.61,4.63-5.53,0,0,7.54-5.83,8.11-9.32,0,0,.35,19.17,19.82,21.44,0,0,3.19,1.44,5.83,7.24,0,0,4.11,17.12,18.32,8.66,0,0,11.9-4.69,18-1.22,0,0,14,8.09,16.24-6.44,0,0,2.59-8.14-4.08-5.21,0,0-.29-.29-.57,3.48,0,0-.88,9.06-16.47,1.36,0,0-10.85-6.79-18.4-6.77,0,0-3.77,2.33-5-7.83,0,0-3.23-8.7-11.08-11.87,0,0,9.88,1.71,12.81,7.51,0,0,8.17,11.88,19.47,3.72a17,17,0,0,0,9.53-16.3s-.56-11.15,7.62-13.27c0,0,8.9-1,6.88,4.51,0,0-4.35,2.63-1.73,4.36,0,0,6.1.28,4.92-5.53,0,0,2.3-7.85-13.09-7.8,0,0-7.56-1.14-11,11.94,0,0-4.31,16.57-18.86,6.74,0,0-15.71-7.21-18.09-23.76,0,0-1.78-13.36-7.6-18.57,0,0-12.53-11.58-7.35-28.15S60.91,151.74,60.05,156.39Z"/><path class="cls-10" d="M57.24,156.68s9.06,10.11,8.39,18.57S74.22,186.6,79,179.62s3.26-14.1,8.81-16.32,9-8.85,7.91-11.36S56.67,145.6,57.24,156.68Z"/><path class="cls-11" d="M57.74,152.59s9.06,10.11,8.39,18.57,8.59,11.35,13.39,4.37,3.26-14.1,8.81-16.32,9-8.85,7.91-11.36S57.17,141.51,57.74,152.59Z"/><path class="cls-2" d="M47.1,101.82S26.76,97.23,23.81,82.14c0,0-4.08-4.06,6.9-23.26,0,0,21.37-39.57,36.45-48.91Z"/><path class="cls-12" d="M64.67,102s-20.85-.22-26.9-14.36c0,0-4.84-3.12,1.88-24.19,0,0,15.47-42.42,28.25-54.72Z"/><path class="cls-12" d="M69.41,101.79s-20.85-.22-26.9-14.36c0,0-4.84-3.12,1.88-24.19,0,0,12.61-43.17,25.4-55.46Z"/><path class="cls-2" d="M100.53,95.85s5.25,8.12,18.58-3.54c0,0,8.69-7.58,2.83-23.83,0,0-7.08-37.16-41.42-56.22Z"/><path class="cls-12" d="M82.57,93.27s3.78,8.9,18.92-.28c0,0,9.86-6,6.9-23,0,0-.57-37.82-31.09-62.53Z"/><path class="cls-12" d="M78.76,97.5s3.77,8.9,18.91-.28c0,0,9.87-6,6.9-23,0,0-.56-37.83-31.09-62.53Z"/><path class="cls-2" d="M68.8,168.56s-2.93-7.54-14.55-8.67c0,0-16.84,1.8-14.58-21.45,0,0,6.66-98.78,25.17-127.3,0,0,3.45-12.21,10.42-11.06,0,0,7,0,9.33,12.16,0,0,22.26,60.35,26.51,120.75,0,0,4.72,22.65-17.35,25.62,0,0-9.3-1.14-13.34,6.43C80.41,165,75.8,177.83,68.8,168.56Z"/><g class="cls-13"><path class="cls-14" d="M66.32,119.43a.79.79,0,0,0-.54.88.7.7,0,0,0,.88.47.7.7,0,0,0-.34-1.35Z"/><path class="cls-15" d="M86.52,145.38a.63.63,0,0,0-.52.78.6.6,0,0,0,.85.47.63.63,0,0,0,.48-.82A.69.69,0,0,0,86.52,145.38Z"/><path class="cls-15" d="M86.65,127.51a.72.72,0,0,0-.48.85.69.69,0,0,0,.82.48.69.69,0,0,0-.34-1.33Z"/><path class="cls-15" d="M86.15,62.59a.73.73,0,0,0-.48.85.76.76,0,0,0,.89.48.72.72,0,0,0,.47-.86A.67.67,0,0,0,86.15,62.59Z"/><path class="cls-15" d="M83.25,38a.72.72,0,0,0-.54.86.7.7,0,0,0,.85.5.83.83,0,0,0,.54-.88C84,38.18,83.58,37.89,83.25,38Z"/><path class="cls-15" d="M91.71,83.45A1,1,0,0,0,91,84.68a1.08,1.08,0,0,0,1.19.83,1.14,1.14,0,0,0,.82-1.3A1,1,0,0,0,91.71,83.45Z"/><path class="cls-15" d="M80.52,111.93a.9.9,0,0,0-.47.92.78.78,0,0,0,.82.47.7.7,0,0,0,.54-.85A.75.75,0,0,0,80.52,111.93Z"/><path class="cls-15" d="M84.37,134.3a.68.68,0,0,0-.54.82.71.71,0,0,0,.85.54.76.76,0,0,0,.47-.88A.62.62,0,0,0,84.37,134.3Z"/><path class="cls-15" d="M81.8,77.47a.7.7,0,0,0-.47.81c.16.37.48.63.81.48a.66.66,0,0,0,.55-.82A.69.69,0,0,0,81.8,77.47Z"/><path class="cls-15" d="M87.75,100.07a1.18,1.18,0,0,0-.82,1.29,1.12,1.12,0,0,0,1.34.81,1.17,1.17,0,0,0,.72-1.28A1.09,1.09,0,0,0,87.75,100.07Z"/><path class="cls-15" d="M83,21.68a.68.68,0,0,0-.48.78.64.64,0,0,0,.89.47.6.6,0,0,0,.48-.75A.72.72,0,0,0,83,21.68Z"/><path class="cls-15" d="M85.16,50.6a1.14,1.14,0,0,0-.89,1.46,1.18,1.18,0,0,0,1.45.82,1.16,1.16,0,0,0,.89-1.46A1.19,1.19,0,0,0,85.16,50.6Z"/><path class="cls-15" d="M84.83,72.71A1.17,1.17,0,0,0,84,74.16a1.13,1.13,0,0,0,1.48.82,1.15,1.15,0,0,0,.86-1.39A1.22,1.22,0,0,0,84.83,72.71Z"/><path class="cls-15" d="M85.12,105.47a1.3,1.3,0,0,0-.86,1.49,1.22,1.22,0,0,0,1.49.82,1.19,1.19,0,0,0,.85-1.45A1.23,1.23,0,0,0,85.12,105.47Z"/><path class="cls-15" d="M78.19,126.91a1.89,1.89,0,0,0-1.36,2.34,1.93,1.93,0,0,0,2.34,1.43,1.95,1.95,0,1,0-1-3.77Z"/><path class="cls-15" d="M75,99.69a2.39,2.39,0,0,0-1.68,2.94,2.43,2.43,0,0,0,4.73-1.14A2.46,2.46,0,0,0,75,99.69Z"/><path class="cls-15" d="M77.14,74.37a2.47,2.47,0,1,0,1.28,4.78,2.37,2.37,0,0,0,1.71-2.94A2.43,2.43,0,0,0,77.14,74.37Z"/><path class="cls-16" d="M91.71,71c-.7-.13-1.41,1.45-1.62,3.45s.26,3.64,1,3.74,1.4-1.51,1.54-3.48S92.39,71,91.71,71Z"/><path class="cls-16" d="M60.56,113c-1-.12-2,1.44-2.13,3.44s.49,3.7,1.46,3.75,2-1.41,2.17-3.41S61.59,113.06,60.56,113Z"/><path class="cls-16" d="M66.32,100.47a2,2,0,0,0-1.9,1.92,1.74,1.74,0,1,0,3.39.34A2,2,0,0,0,66.32,100.47Z"/><path class="cls-15" d="M84.9,55.64c-1-.09-1.91,1-1.94,2.37A2.15,2.15,0,0,0,84.7,60.5c1,0,1.87-1,1.91-2.34S85.93,55.69,84.9,55.64Z"/><path class="cls-15" d="M71.58,25.59c-.83,0-1.51.84-1.55,2s.55,2.11,1.41,2.06,1.54-.84,1.62-1.94S72.44,25.62,71.58,25.59Z"/><path class="cls-15" d="M85.47,31c-.58,0-1,.88-1.09,2.06s.37,2,.89,2,1.12-.89,1.1-2S86,31.05,85.47,31Z"/><path class="cls-15" d="M91.48,41.45c-.58,0-1.06.88-1.1,2s.38,2,.9,2,1.12-.89,1.1-2S92,41.48,91.48,41.45Z"/><path class="cls-14" d="M85.61,115a2.37,2.37,0,0,0-1.71,2.94,2.41,2.41,0,1,0,4.66-1.2A2.39,2.39,0,0,0,85.61,115Z"/><path class="cls-14" d="M70.18,118.89a2.42,2.42,0,0,0-1.74,2.94,2.47,2.47,0,0,0,2.94,1.81,2.5,2.5,0,0,0,1.81-3A2.47,2.47,0,0,0,70.18,118.89Z"/><path class="cls-14" d="M71.35,59.21a2.54,2.54,0,0,0-1.77,3,2.47,2.47,0,0,0,3,1.67A2.38,2.38,0,0,0,74.33,61,2.47,2.47,0,0,0,71.35,59.21Z"/><path class="cls-17" d="M92.8,53.27c-.87-.09-1.64.91-1.78,2.29s.54,2.52,1.4,2.55,1.74-1,1.85-2.3S93.73,53.33,92.8,53.27Z"/><path class="cls-17" d="M65,41.17c-.38,0-.76.62-.82,1.42s.25,1.47.66,1.51.69-.62.75-1.41S65.39,41.28,65,41.17Z"/><path class="cls-15" d="M90.89,92.14c-.62-.07-1.15.84-1.19,2s.32,2.28.9,2.3,1.15-.89,1.24-2.09S91.52,92.11,90.89,92.14Z"/><path class="cls-15" d="M65.53,109.7c-.58,0-1.09.85-1.13,2s.24,2.06.82,2.06,1.06-.78,1.18-1.88S66.05,109.71,65.53,109.7Z"/><path class="cls-15" d="M70,94.37a1.18,1.18,0,0,0-.89,1.46,1.23,1.23,0,0,0,1.45.89,1.21,1.21,0,0,0,.86-1.46A1.14,1.14,0,0,0,70,94.37Z"/><path class="cls-15" d="M71.86,42.13A1.18,1.18,0,0,0,71,43.58a1.09,1.09,0,0,0,1.42.86A1.19,1.19,0,0,0,73.35,43,1.26,1.26,0,0,0,71.86,42.13Z"/><path class="cls-15" d="M74.76,10.23a1.26,1.26,0,0,0-.86,1.49,1.19,1.19,0,1,0,2.31-.6A1.17,1.17,0,0,0,74.76,10.23Z"/><path class="cls-15" d="M68,129.11a1.2,1.2,0,0,0-.85,1.45,1.24,1.24,0,0,0,1.49.89,1.19,1.19,0,0,0,.81-1.48A1.17,1.17,0,0,0,68,129.11Z"/><path class="cls-15" d="M79.34,144.29a1.27,1.27,0,0,0-.82,1.49,1.1,1.1,0,0,0,1.46.82,1.19,1.19,0,0,0,.89-1.45A1.28,1.28,0,0,0,79.34,144.29Z"/><path class="cls-15" d="M80.79,93.38a1.71,1.71,0,0,0-1.35,2.11,1.9,1.9,0,0,0,2.21,1.39A1.88,1.88,0,0,0,83,94.63,1.67,1.67,0,0,0,80.79,93.38Z"/><path class="cls-15" d="M76.51,49.05a1.21,1.21,0,1,0,.64,2.33A1.17,1.17,0,0,0,78,49.94,1.2,1.2,0,0,0,76.51,49.05Z"/><path class="cls-15" d="M78.64,20.42a1.24,1.24,0,0,0-.85,1.46,1.19,1.19,0,0,0,1.49.88,1.24,1.24,0,0,0,.85-1.45A1.17,1.17,0,0,0,78.64,20.42Z"/><path class="cls-18" d="M60.85,107.32a1.33,1.33,0,0,0-.88,1.49,1.26,1.26,0,0,0,1.52.85,1.19,1.19,0,0,0,.82-1.45A1.23,1.23,0,0,0,60.85,107.32Z"/><path class="cls-18" d="M69.57,62a1.15,1.15,0,0,0-.83,1.42,1.23,1.23,0,0,0,1.46.92,1.27,1.27,0,0,0,.85-1.52A1.21,1.21,0,0,0,69.57,62Z"/><path class="cls-18" d="M68.74,34.78a1.18,1.18,0,0,0-.89,1.46,1.25,1.25,0,0,0,1.49.85,1.13,1.13,0,0,0,.81-1.48A1.17,1.17,0,0,0,68.74,34.78Z"/><path class="cls-18" d="M59.37,122.81a1.2,1.2,0,0,0-.82,1.49,1.17,1.17,0,0,0,1.45.81,1.19,1.19,0,0,0,.86-1.45A1.24,1.24,0,0,0,59.37,122.81Z"/><path class="cls-14" d="M70.85,87.22A1.15,1.15,0,0,0,70,88.71a1.2,1.2,0,0,0,1.49.82,1.23,1.23,0,0,0,.82-1.46A1.11,1.11,0,0,0,70.85,87.22Z"/><path class="cls-19" d="M69.62,54.28a1.19,1.19,0,0,0-.82,1.45,1.22,1.22,0,0,0,1.46.86,1.28,1.28,0,0,0,.88-1.5A1.22,1.22,0,0,0,69.62,54.28Z"/><path class="cls-14" d="M70.12,22a1.13,1.13,0,0,0-.82,1.41,1.17,1.17,0,0,0,1.45.89,1.19,1.19,0,0,0,.82-1.48A1.11,1.11,0,0,0,70.12,22Z"/><path class="cls-14" d="M69.34,10.23a1.13,1.13,0,0,0-.82,1.42,1.16,1.16,0,0,0,1.45.88,1.21,1.21,0,0,0,.82-1.48A1.11,1.11,0,0,0,69.34,10.23Z"/><path class="cls-14" d="M69.57,77.57a1.19,1.19,0,1,0,.59,2.31,1.19,1.19,0,0,0-.59-2.31Z"/><path class="cls-14" d="M64.67,135.81a1.18,1.18,0,0,0-.82,1.49,1.2,1.2,0,0,0,1.45.82,1.15,1.15,0,0,0,.86-1.45A1.17,1.17,0,0,0,64.67,135.81Z"/><path class="cls-14" d="M72.57,16a1.16,1.16,0,0,0-.82,1.48,1.1,1.1,0,0,0,1.38.83,1.16,1.16,0,0,0,.93-1.43A1.28,1.28,0,0,0,72.57,16Z"/><path class="cls-14" d="M81.8,29.86a1.2,1.2,0,0,0-.89,1.45,1.17,1.17,0,0,0,1.46.86,1.19,1.19,0,0,0,.92-1.43A1.27,1.27,0,0,0,81.8,29.86Z"/><path class="cls-14" d="M84.75,83.34a1.14,1.14,0,0,0-.85,1.45,1.25,1.25,0,0,0,1.49.89,1.23,1.23,0,0,0,.82-1.49A1.15,1.15,0,0,0,84.75,83.34Z"/><path class="cls-14" d="M86.41,155.49a1.21,1.21,0,0,0-.85,1.49,1.13,1.13,0,0,0,1.42.82,1.15,1.15,0,0,0,.88-1.45A1.22,1.22,0,0,0,86.41,155.49Z"/><path class="cls-15" d="M73.43,111.05a1.24,1.24,0,0,0-.86,1.45,1.29,1.29,0,0,0,1.53.86,1.2,1.2,0,0,0-.67-2.31Z"/><path class="cls-15" d="M76,136.38a1.24,1.24,0,0,0-.88,1.49,1.2,1.2,0,0,0,1.45.89,1.23,1.23,0,0,0-.57-2.38Z"/><path class="cls-15" d="M79.15,64.39a1.19,1.19,0,1,0,.56,2.31,1.19,1.19,0,0,0-.56-2.31Z"/><path class="cls-15" d="M77.68,29.86a1.08,1.08,0,0,0-.83,1.45,1.14,1.14,0,0,0,1.39.83,1.17,1.17,0,0,0,.89-1.46A1.13,1.13,0,0,0,77.68,29.86Z"/><path class="cls-14" d="M63.27,127.22a1.27,1.27,0,0,0-.82,1.52,1.21,1.21,0,0,0,2.35-.6A1.34,1.34,0,0,0,63.27,127.22Z"/><path class="cls-14" d="M68.9,103.89a1.22,1.22,0,0,0-.92,1.45,1.16,1.16,0,0,0,1.49.86,1.14,1.14,0,0,0,.85-1.43A1.18,1.18,0,0,0,68.9,103.89Z"/><path class="cls-14" d="M72.22,66.77a1.15,1.15,0,0,0-.89,1.46,1.23,1.23,0,0,0,2.37-.64A1.16,1.16,0,0,0,72.22,66.77Z"/><path class="cls-19" d="M68.24,132.2a.69.69,0,0,0-.54.85.69.69,0,1,0,1.32-.38A.62.62,0,0,0,68.24,132.2Z"/><path class="cls-19" d="M65.19,97.06a.65.65,0,0,0-.48.81.75.75,0,0,0,.82.48.73.73,0,0,0,.54-.82A.62.62,0,0,0,65.19,97.06Z"/><path class="cls-19" d="M68.4,70.13a.65.65,0,0,0-.48.85.68.68,0,0,0,.82.54.8.8,0,0,0,.47-.91A.65.65,0,0,0,68.4,70.13Z"/><path class="cls-19" d="M71.82,32.36a.64.64,0,0,0-.48.85.68.68,0,0,0,.78.48.62.62,0,0,0,.48-.86A.54.54,0,0,0,71.82,32.36Z"/><path class="cls-18" d="M93.08,64.26a.68.68,0,0,0-.47.85.72.72,0,0,0,.81.55c.41-.16.63-.48.48-.85A.7.7,0,0,0,93.08,64.26Z"/><path class="cls-18" d="M60.1,102a.59.59,0,0,0-.51.78.71.71,0,0,0,.82.48.67.67,0,0,0,.51-.79A.58.58,0,0,0,60.1,102Z"/><path class="cls-18" d="M65.4,55.08a.73.73,0,0,0-.47.85.67.67,0,0,0,.81.47.62.62,0,0,0,.48-.84A.67.67,0,0,0,65.4,55.08Z"/><path class="cls-18" d="M62.3,114.13a.69.69,0,0,0-.47.81.66.66,0,0,0,.84.47.68.68,0,0,0,.48-.81A.66.66,0,0,0,62.3,114.13Z"/><path class="cls-14" d="M57.28,126.17a1.17,1.17,0,0,0-1.46.85,1.2,1.2,0,0,0,.82,1.45,1.19,1.19,0,1,0,.64-2.3Z"/><path class="cls-14" d="M65.17,143.66a.63.63,0,0,0-.59.57.57.57,0,0,0,.59.54.55.55,0,0,0,.53-.56A.54.54,0,0,0,65.17,143.66Z"/><path class="cls-15" d="M75.55,167.54a.5.5,0,0,0-.55.5.48.48,0,0,0,.56.53c.27.06.52-.2.53-.53A.56.56,0,0,0,75.55,167.54Z"/><path class="cls-15" d="M79.17,153.87a.55.55,0,0,0-.53.56.52.52,0,0,0,.53.52c.31,0,.58-.24.52-.53A.49.49,0,0,0,79.17,153.87Z"/><path class="cls-15" d="M76.09,158.63a.53.53,0,0,0-.58.52.56.56,0,0,0,.55.58.59.59,0,0,0,.53-.58A.49.49,0,0,0,76.09,158.63Z"/><path class="cls-15" d="M72.8,151.74a1.51,1.51,0,0,0-1.51,1.53,1.55,1.55,0,1,0,1.51-1.53Z"/><path class="cls-16" d="M62,137.6c-.72-.28-1.81.72-2.31,2.22s-.35,2.94.38,3.17,1.81-.69,2.33-2.2S62.8,137.84,62,137.6Z"/><path class="cls-14" d="M80.85,144A1.88,1.88,0,0,0,79,146a1.91,1.91,0,1,0,3.81,0A1.89,1.89,0,0,0,80.85,144Z"/><path class="cls-14" d="M68.24,144a1.92,1.92,0,0,0-1.92,1.91,2,2,0,0,0,1.9,2,2,2,0,0,0,2-1.93A2,2,0,0,0,68.24,144Z"/><path class="cls-15" d="M66.49,136.05c-.45-.15-1,.43-1.26,1.27s-.22,1.62.23,1.74,1-.39,1.27-1.21S66.88,136.15,66.49,136.05Z"/><path class="cls-15" d="M64.56,151.42a1,1,0,0,0-.94,1,1,1,0,0,0,1,1,1,1,0,0,0,.92-1A.93.93,0,0,0,64.56,151.42Z"/><path class="cls-15" d="M70.26,165.3a1,1,0,0,0-.92,1,.87.87,0,0,0,1,.91.93.93,0,0,0,1-.94A1,1,0,0,0,70.26,165.3Z"/><path class="cls-18" d="M63.37,133.3a1.06,1.06,0,0,0-1,1,1,1,0,0,0,1,.95.94.94,0,0,0,.92-.95A1,1,0,0,0,63.37,133.3Z"/><path class="cls-18" d="M59.17,144.88a1,1,0,0,0-.92,1,1,1,0,0,0,1.9,0A1,1,0,0,0,59.17,144.88Z"/><path class="cls-14" d="M60.68,155.9a.93.93,0,0,0-.92,1,1,1,0,0,0,1,.92.91.91,0,0,0,.94-.94A.93.93,0,0,0,60.68,155.9Z"/><path class="cls-15" d="M72.27,138.64a1,1,0,0,0-.94.94,1,1,0,0,0,1,1,1,1,0,0,0-.06-1.9Z"/><path class="cls-15" d="M69.24,158.57a1,1,0,0,0-1,1,1,1,0,0,0,.94,1,1,1,0,0,0,0-1.93Z"/><path class="cls-14" d="M61.3,149a1,1,0,0,0-.93,1,.94.94,0,0,0,1,.92.93.93,0,0,0,1-.92A1.06,1.06,0,0,0,61.3,149Z"/><path class="cls-19" d="M64.13,153.83a.57.57,0,0,0-.59.55.58.58,0,0,0,.56.56.57.57,0,0,0,.53-.59A.49.49,0,0,0,64.13,153.83Z"/><path class="cls-18" d="M63.13,138.81a.54.54,0,0,0-.52.53.53.53,0,0,0,.56.52.55.55,0,0,0,.53-.53A.52.52,0,0,0,63.13,138.81Z"/><path class="cls-14" d="M56.91,147.05a.92.92,0,0,0-1.29.37.94.94,0,0,0,.35,1.27.91.91,0,0,0,1.29-.32A.92.92,0,0,0,56.91,147.05Z"/></g><path class="cls-12" d="M67,152.08s-16.84,1.8-14.58-21.45c0,0,6.67-98.77,25.17-127.3,0,0,.26-.92.79-2.24a6.49,6.49,0,0,0-3-1C68.38-1,64.94,11.17,64.94,11.17c-18.51,28.52-25.18,127.3-25.18,127.3-2.25,23.24,14.59,21.44,14.59,21.44C66,161,68.9,168.58,68.9,168.58c7,9.28,11.61-3.52,11.61-3.52a11.3,11.3,0,0,1,2.2-2.92,14.69,14.69,0,0,1-1.19-1.39S78.6,153.21,67,152.08Z"/><g class="cls-20"><path class="cls-11" d="M56.27,119.79l-.49,1.13c-1.32,6.14-1.33,10.84,1.4,15.38C67.54,134.07,67.78,113.35,56.27,119.79Z"/></g><g class="cls-20"><path class="cls-11" d="M69.55,122.91l-.28.64c-.74,3.45-.74,6.08.79,8.63C75.89,130.93,76,119.3,69.55,122.91Z"/></g><g class="cls-20"><path class="cls-11" d="M60.43,140.11l-.27.64c-.74,3.45-.75,6.09.78,8.64C66.76,148.13,66.9,136.5,60.43,140.11Z"/></g><g class="cls-20"><path class="cls-11" d="M76.91,133.67l0,.43c.27,2.15.8,3.66,2.22,4.79C82.24,136.87,80,130.15,76.91,133.67Z"/></g><g class="cls-20"><path class="cls-11" d="M66.21,139.78l0,.43c.27,2.15.8,3.66,2.22,4.79C71.54,143,69.25,136.27,66.21,139.78Z"/></g><g class="cls-20"><path class="cls-11" d="M70.09,152.17l0,.3a4.48,4.48,0,0,0,1.53,3.3C73.77,154.38,72.2,149.74,70.09,152.17Z"/></g><g class="cls-20"><path class="cls-11" d="M52.73,140.3l0,.29a4.6,4.6,0,0,0,1.53,3.32C56.42,142.51,54.84,137.87,52.73,140.3Z"/></g><g class="cls-20"><path class="cls-11" d="M74.53,143.05l0,.42c.27,2.15.79,3.67,2.21,4.79C79.86,146.24,77.57,139.53,74.53,143.05Z"/></g><g class="cls-20"><path class="cls-11" d="M66.63,186.07l-.88.86c-3.54,5.19-5.32,9.53-4.51,14.77C71.68,203.55,79.72,184.46,66.63,186.07Z"/></g><g class="cls-20"><path class="cls-11" d="M77.75,194l-.5.48c-2,2.92-3,5.36-2.53,8.3C80.59,203.8,85.1,193.07,77.75,194Z"/></g><g class="cls-20"><path class="cls-11" d="M62.81,206.46l-.5.48c-2,2.92-3,5.36-2.53,8.3C65.64,216.28,70.16,205.55,62.81,206.46Z"/></g><g class="cls-20"><path class="cls-11" d="M80.5,206.72l-.19.38c-.57,2.09-.65,3.7.24,5.27C84.22,211.69,84.65,204.61,80.5,206.72Z"/></g><g class="cls-20"><path class="cls-11" d="M68.28,208.33l-.19.39c-.56,2.09-.64,3.69.24,5.27C72,213.31,72.43,206.23,68.28,208.33Z"/></g><g class="cls-20"><path class="cls-11" d="M67.2,221.27l-.14.27a4.58,4.58,0,0,0,.17,3.64C69.77,224.71,70.06,219.82,67.2,221.27Z"/></g><g class="cls-20"><path class="cls-11" d="M55.61,203.73l-.13.26a4.53,4.53,0,0,0,.17,3.64C58.19,207.17,58.48,202.27,55.61,203.73Z"/></g><g class="cls-20"><path class="cls-11" d="M74.75,214.5l-.19.38c-.56,2.1-.64,3.7.25,5.27C78.48,219.48,78.9,212.4,74.75,214.5Z"/></g><path class="cls-21" d="M78.21,15.46S105.45,91.18,103,133c0,0-1.72,7-3.46,10.46a134,134,0,0,0-1.26-33.1S94.66,75.53,78.21,15.46Z"/><path class="cls-5" d="M57.69,93.71C60,80.77,62.58,67.84,64.06,54.78c.29-2.52,4.15-1.8,3.86.7-1.48,13.06-4.08,26-6.37,38.93-.44,2.49-4.3,1.78-3.86-.7Z"/><path class="cls-5" d="M65.89,122.41c-1.81-1.76.92-4.57,2.73-2.81s-.92,4.57-2.73,2.81Z"/><path class="cls-5" d="M69.06,117.91c-1.81-1.75.92-4.57,2.73-2.8s-.92,4.57-2.73,2.8Z"/><path class="cls-5" d="M68.33,30.54a1,1,0,0,1,1.36-1.41c.9.88-.46,2.29-1.36,1.41Z"/><path class="cls-5" d="M69.08,24.71a1,1,0,0,1,1.36-1.41,1,1,0,0,1-1.36,1.41Z"/><path class="cls-5" d="M70.11,19.7a1,1,0,0,1,1.37-1.41,1,1,0,0,1-1.37,1.41Z"/><path class="cls-11" d="M69.68,96.08c-1.81-1.76.92-4.57,2.73-2.81s-.92,4.57-2.73,2.81Z"/><path class="cls-11" d="M79.8,115.83A2,2,0,0,1,82.54,113c1.81,1.75-.92,4.57-2.74,2.81Z"/><path class="cls-11" d="M65.87,114.29c-1.91-1.64.64-4.62,2.56-3s-.64,4.62-2.56,3Z"/><path class="cls-11" d="M93.67,133.48c-1.8-1.76.93-4.57,2.74-2.81s-.92,4.57-2.74,2.81Z"/><path class="cls-11" d="M75.35,8.12c-1.81-1.76.92-4.57,2.73-2.81s-.92,4.57-2.73,2.81Z"/><path class="cls-11" d="M74.84,115.37a1,1,0,0,1,1.27-1.49,1,1,0,0,1-1.27,1.49Z"/><path class="cls-11" d="M62.51,115.8a1,1,0,0,1,1.28-1.49,1,1,0,0,1-1.28,1.49Z"/><path class="cls-11" d="M62.51,115.8a1,1,0,0,1,1.28-1.49,1,1,0,0,1-1.28,1.49Z"/><path class="cls-11" d="M64.47,108.7a1,1,0,0,1,1.28-1.49,1,1,0,0,1-1.28,1.49Z"/><path class="cls-11" d="M70.85,108.5A1,1,0,0,1,72.13,107a1,1,0,0,1-1.28,1.49Z"/><path class="cls-11" d="M75.81,111.65a1,1,0,0,1,1.27-1.48,1,1,0,0,1-1.27,1.48Z"/><path class="cls-11" d="M68.09,105.09a1,1,0,0,1,1.28-1.49,1,1,0,0,1-1.28,1.49Z"/><path class="cls-11" d="M74,101.86l-.3-.25a1,1,0,0,1,1.28-1.49l.3.26A1,1,0,0,1,74,101.86Z"/><path class="cls-11" d="M67.67,99.56l.3.26a1,1,0,0,1-1.28,1.49l-.29-.26a1,1,0,0,1,1.27-1.49Z"/><path class="cls-11" d="M59,110.23a1,1,0,0,1,1.28-1.49A1,1,0,0,1,59,110.23Z"/><path class="cls-11" d="M77.88,119.81a1,1,0,0,1,1.28-1.49,1,1,0,0,1-1.28,1.49Z"/><path class="cls-11" d="M71.35,149.25a1,1,0,0,1,1.36-1.41,1,1,0,0,1-1.36,1.41Z"/><path class="cls-11" d="M72.75,140.77a1,1,0,0,1,1.37-1.4,1,1,0,0,1-1.37,1.4Z"/><path class="cls-11" d="M65.29,136.91a1,1,0,0,1,1.37-1.41,1,1,0,0,1-1.37,1.41Z"/><path class="cls-11" d="M71.62,133.54l.27-.28a1,1,0,0,1,1.41,1.37l-.28.28c-.87.91-2.28-.46-1.4-1.37Z"/><path class="cls-11" d="M77.77,128.45a1,1,0,0,1,1.36-1.4,1,1,0,0,1-1.36,1.4Z"/><path class="cls-11" d="M73,120.11a1,1,0,0,1,1.37-1.41A1,1,0,0,1,73,120.11Z"/><path class="cls-5" d="M98.58,225.71c-2.31-1-.72-4.61,1.58-3.59s.73,4.61-1.58,3.59Z"/><path class="cls-5" d="M100,220.39c-2.3-1-.72-4.61,1.59-3.58s.72,4.6-1.59,3.58Z"/><path class="cls-11" d="M93,199.69c-2.31-1-.72-4.6,1.59-3.58s.72,4.61-1.59,3.58Z"/><path class="cls-11" d="M80.51,227c-2.37-.88-1-4.55,1.37-3.67s1,4.55-1.37,3.67Z"/><path class="cls-11" d="M104.53,216a1,1,0,0,1,.68-1.84,1,1,0,0,1-.68,1.84Z"/><path class="cls-11" d="M93.12,220.67a1,1,0,0,1,.68-1.83,1,1,0,0,1-.68,1.83Z"/><path class="cls-11" d="M93.12,220.67a1,1,0,0,1,.68-1.83,1,1,0,0,1-.68,1.83Z"/><path class="cls-11" d="M92.5,213.34a1,1,0,0,1,.68-1.84,1,1,0,0,1-.68,1.84Z"/><path class="cls-11" d="M98.41,210.93a1,1,0,0,1,.68-1.84,1,1,0,0,1-.68,1.84Z"/><path class="cls-11" d="M104.15,212.18a1,1,0,0,1,.68-1.84,1,1,0,0,1-.68,1.84Z"/><path class="cls-11" d="M94.64,208.7a1,1,0,0,1,.68-1.84,1,1,0,0,1-.68,1.84Z"/><path class="cls-11" d="M95.07,238.52a1,1,0,0,1-1.66-1.05,1,1,0,0,1,1.66,1.05Z"/><path class="cls-11" d="M94,232.24a1,1,0,0,1-1.66-1.05A1,1,0,0,1,94,232.24Z"/><path class="cls-11" d="M91,235.46a1,1,0,0,1-1.66-1.05A1,1,0,0,1,91,235.46Z"/><path class="cls-11" d="M108.08,232.89a1,1,0,0,1-1.65-1,1,1,0,0,1,1.65,1Z"/><path class="cls-11" d="M107,226.61a1,1,0,0,1-1.65-1.05,1,1,0,0,1,1.65,1.05Z"/><path class="cls-11" d="M104,229.83a1,1,0,0,1-1.66-1.05,1,1,0,0,1,1.66,1.05Z"/><path class="cls-11" d="M65.07,228.69a1,1,0,0,1-1.66-1,1,1,0,0,1,1.66,1Z"/><path class="cls-11" d="M64,222.41a1,1,0,0,1-1.66-1,1,1,0,0,1,1.66,1Z"/><path class="cls-11" d="M61,225.63a1,1,0,0,1-1.65-1,1,1,0,0,1,1.65,1Z"/><path class="cls-11" d="M87.51,221.51a1,1,0,0,1-1.66-1,1,1,0,0,1,1.66,1Z"/><path class="cls-11" d="M86.39,215.23a1,1,0,0,1-1.66-1,1,1,0,0,1,1.66,1Z"/><path class="cls-11" d="M83.41,218.45a1,1,0,0,1-1.65-1,1,1,0,0,1,1.65,1Z"/><path class="cls-11" d="M57.8,217.78a1,1,0,0,1-1.65-1.05,1,1,0,0,1,1.65,1.05Z"/><path class="cls-11" d="M56.69,211.49A1,1,0,0,1,55,210.44a1,1,0,0,1,1.66,1.05Z"/><path class="cls-11" d="M53.71,214.72a1,1,0,0,1-1.65-1.05,1,1,0,0,1,1.65,1.05Z"/><path class="cls-11" d="M99,203.64l-.37-.14a1,1,0,0,1,.68-1.84l.37.14a1,1,0,0,1-.68,1.84Z"/><path class="cls-11" d="M92.33,203.66l.37.13a1,1,0,0,1-.68,1.84l-.37-.14a1,1,0,0,1,.68-1.83Z"/><path class="cls-11" d="M104.48,221.07a1,1,0,0,1,.8-1.79,1,1,0,0,1-.8,1.79Z"/><path class="cls-11" d="M94.69,136.65l-.27.28A1,1,0,0,1,93,135.57c.09-.1.19-.19.28-.28a1,1,0,0,1,1.4,1.36Z"/><path class="cls-11" d="M92.87,145a1,1,0,0,1,1.37-1.4,1,1,0,0,1-1.37,1.4Z"/><path class="cls-11" d="M89.6,148.92a1,1,0,0,1,1.37-1.4,1,1,0,0,1-1.37,1.4Z"/><path class="cls-11" d="M92.41,151.65a1,1,0,0,1,1.37-1.4,1,1,0,0,1-1.37,1.4Z"/><path class="cls-11" d="M88.65,140.62l.27-.28a1,1,0,0,1,1.41,1.36,3.7,3.7,0,0,1-.28.28,1,1,0,0,1-1.4-1.36Z"/><path class="cls-11" d="M96.92,137.45a1,1,0,0,1,1.37-1.4,1,1,0,0,1-1.37,1.4Z"/><path class="cls-11" d="M94.57,128.06a1,1,0,0,1,1.37-1.41,1,1,0,0,1-1.37,1.41Z"/><path class="cls-22" d="M84.25,157.42a5.87,5.87,0,0,0,.8-1.63,9.1,9.1,0,0,0,.36-1.69,9,9,0,0,0,0-1.72,5.84,5.84,0,0,0-.42-1.77,5.48,5.48,0,0,0-.8,1.63,8.35,8.35,0,0,0-.36,1.69,9,9,0,0,0,0,1.72A5.84,5.84,0,0,0,84.25,157.42Z"/><path class="cls-22" d="M85.33,142.47a4.65,4.65,0,0,0,.88-1.55,6.91,6.91,0,0,0,.39-1.66,7,7,0,0,0,0-1.71,5.17,5.17,0,0,0-.54-1.7,6.48,6.48,0,0,0-.69,1.63,9.22,9.22,0,0,0-.3,1.62,9.93,9.93,0,0,0,0,1.64A6.51,6.51,0,0,0,85.33,142.47Z"/><path class="cls-22" d="M86.23,126c.1-3.23.32-6.42.54-9.62s.46-6.42.54-9.65A57.5,57.5,0,0,0,86.78,97a29.14,29.14,0,0,0-2.88-9.28,47,47,0,0,1,1.67,9.42,95,95,0,0,1,.17,9.55c0,3.19-.2,6.41-.19,9.64A57.91,57.91,0,0,0,86.23,126Z"/><path class="cls-22" d="M84.07,82c-.9-.88.46-2.29,1.36-1.4A1,1,0,0,1,84.07,82Z"/><path class="cls-22" d="M83.7,75.6a1,1,0,0,1,1.37-1.41A1,1,0,0,1,83.7,75.6Z"/><path class="cls-22" d="M82.59,65.5a40.39,40.39,0,0,0,0-4.92c-.09-1.64-.22-3.26-.43-4.87s-.45-3.22-.77-4.83a39.17,39.17,0,0,0-1.2-4.77,40.4,40.4,0,0,0,0,4.92c.09,1.64.22,3.26.43,4.87s.46,3.23.77,4.82A38.41,38.41,0,0,0,82.59,65.5Z"/><path class="cls-23" d="M102.39,233.51c2.71.93,10,3.15,12.21,10.06s4.85,12.11,12.64,13,21.08,4.86,14.79,4-13.44-2.85-15.61-.25-5.26,1-8.5-3.88S113,246,106.4,242.44,91.82,229.88,102.39,233.51Z"/><path class="cls-23" d="M114,222.87c2.51-.11,6.64,4.58,10.9,7.12s13.66,7.41,17.79-.73,6.32-7.64,4.87-2.06S143,237.64,137.31,239s-7.84,1.23-12.33-3.22C116.76,227.65,106.41,223.2,114,222.87Z"/><path class="cls-23" d="M75,231.75s-7.63,3.61-5.84,10.87,1.31,10.46,8.35,13.8,8.59,4.24,8.12,10.29-.18-1.55-6.43-5.68-16.78-10.55-16.74-17.37S63.8,227.33,75,231.75Z"/><path class="cls-23" d="M53.19,220.34S47.7,232.81,38.12,235s-17.52,2.61-18.88,5.92,2.8-2.44,10.67-2.55,16.38-.24,20-5.46S63.24,216.57,53.19,220.34Z"/><path class="cls-24" d="M47.78,97.3c.54-39.39,13.06-71.16,28-70.95s26.52,32.31,26,71.7c-.31,21.89,14,46.26,1.26,52.89C68.8,168.79,80.38,169.09,73.76,169c-6.09-.08-10.21-10.46-25.37-14.46C34.3,150.82,47.45,120.59,47.78,97.3Z"/><path class="cls-25" d="M50.88,123.86c.29-21.4,13.64-73.45,24.75-73.29s23,53.92,22.72,75.33c-.18,12.64,11,19.5,3.06,22.83-9.67,4.08-23,15.62-27.59,15.56-5.45-.08-18.74-10-26.6-14.87C40.43,145.22,50.72,134.77,50.88,123.86Z"/><path class="cls-26" d="M58,205.77c-.63-13.76,9.62-25.4,22.9-26s24.56,10.06,25.18,23.82-9.62,25.4-22.9,26S58.66,219.53,58,205.77Z"/><path class="cls-27" d="M64.59,215.22c-.34-7.48,7.41-13.91,17.32-14.36s18.21,5.24,18.55,12.72-7.41,13.91-17.32,14.36S64.93,222.7,64.59,215.22Z"/><path class="cls-4" d="M56.2,245.94c1.34,2.05,1.08,4.6-.59,5.69s-4.11.31-5.45-1.74-1.08-4.6.59-5.69S54.85,243.89,56.2,245.94Z"/><path class="cls-5" d="M55.72,246.25c1.26,1.92,1.08,4.27-.41,5.24s-3.71.21-5-1.72-1.07-4.27.41-5.24S54.47,244.33,55.72,246.25Z"/><path class="cls-6" d="M54.43,247.1c.9,1.37.77,3.05-.3,3.74s-2.65.15-3.55-1.23-.76-3,.3-3.74S53.53,245.72,54.43,247.1Z"/><path class="cls-4" d="M53.36,247.8a1.05,1.05,0,1,1-1.58-.55A1.21,1.21,0,0,1,53.36,247.8Z"/><path class="cls-4" d="M56.41,260.72c0,1.9-1.26,3.44-2.81,3.43s-2.79-1.55-2.78-3.45,1.26-3.44,2.8-3.43S56.41,258.82,56.41,260.72Z"/><path class="cls-5" d="M56,260.72c0,1.78-1.13,3.22-2.51,3.22S51,262.48,51,260.7s1.13-3.22,2.51-3.22S56,258.94,56,260.72Z"/><path class="cls-6" d="M54.77,260.72A2.09,2.09,0,0,1,53,263a2.38,2.38,0,0,1,0-4.61A2.11,2.11,0,0,1,54.77,260.72Z"/><path class="cls-4" d="M53.78,260.71a.82.82,0,1,1-.79-1A.93.93,0,0,1,53.78,260.71Z"/><path class="cls-4" d="M50.61,272.28c-1.33,1.36-3.3,1.59-4.41.52s-.93-3.06.4-4.42,3.3-1.59,4.4-.52S51.93,270.92,50.61,272.28Z"/><path class="cls-5" d="M50.29,272c-1.24,1.28-3,1.54-4,.58s-.77-2.78.47-4.06,3.05-1.53,4-.57S51.54,270.7,50.29,272Z"/><path class="cls-6" d="M49.43,271.14a1.84,1.84,0,1,1-2.55-2.49,1.84,1.84,0,1,1,2.55,2.49Z"/><path class="cls-4" d="M48.72,270.44a.92.92,0,0,1-1.28.18,1.06,1.06,0,0,1,1.43-1.46A.92.92,0,0,1,48.72,270.44Z"/><path class="cls-4" d="M45.06,277.41A2.69,2.69,0,0,1,41.63,279a3,3,0,1,1,3.43-1.58Z"/><path class="cls-5" d="M44.73,277.24a2.51,2.51,0,0,1-3.13,1.54c-1.05-.52-1.36-2-.69-3.41S43,273.32,44,273.84,45.4,275.88,44.73,277.24Z"/><path class="cls-6" d="M43.81,276.79a1.79,1.79,0,0,1-2.23,1.1,2,2,0,1,1,2.23-1.1Z"/><path class="cls-4" d="M43.05,276.42a.79.79,0,0,1-1,.48.78.78,0,0,1-.22-1.07.7.7,0,1,1,1.21.59Z"/><path class="cls-4" d="M43,284.28a2.14,2.14,0,0,1-2.25,2,2.37,2.37,0,1,1,2.25-2Z"/><path class="cls-5" d="M42.67,284.23a2,2,0,0,1-2,1.86,2,2,0,0,1-1.28-2.43c.21-1.18,1.11-2,2-1.85A2,2,0,0,1,42.67,284.23Z"/><path class="cls-6" d="M41.87,284.09c-.15.85-.79,1.44-1.44,1.33a1.61,1.61,0,1,1,1.44-1.33Z"/><path class="cls-4" d="M41.21,284a.55.55,0,1,1-.4-.77A.62.62,0,0,1,41.21,284Z"/></g></g></g></svg>