<svg xmlns="http://www.w3.org/2000/svg" width="40" height="40"   viewBox="0 0 195.17 100.32"><defs><style>.cls-1{fill:#5d3926;}.cls-2{fill:#ece4e1;}.cls-3{fill:#d4b893;}.cls-4{fill:#cab36b;}.cls-5{fill:#e0c690;}.cls-6{fill:#fffdff;}.cls-7{fill:#e2c5a1;}.cls-8{fill:#d1b874;}</style></defs><g id="Layer_2" data-name="Layer 2"><g id="Layer_1-2" data-name="Layer 1"><path class="cls-1" d="M9.54,67.44s13.3,1.93,20-20.21c0,0,1.08-5.73,12.09-11.14,0,0,4.59-3.22,10.64-10.75s11.32-12.71,32.45-12c0,0,7,1.1,20.8-7.29,0,0-.1-3.52,17.46,3.78,0,0,5.6.17,14.68-8.51,0,0,3.82-6.1,12.46,8.19,0,0,6.83,11.91,16.52,7.82,0,0,6.16-4,8.7,5.14,0,0-1.16,16.18,11.5,14.83a11.94,11.94,0,0,1,5.55,10.61s7.28,2.93-1.64,9.91c0,0-7-1.1-9.08,10,0,0,7.68,20.94-29,15.84,0,0-9.49-4.12-26.43,9.73,0,0-14.19,14.77-48.42,1.35,0,0-11.82-7.52-37.58.25,0,0-27,11.3-38.7-8C1.57,87-5.25,73.73,9.54,67.44Z"/><path class="cls-2" d="M16.35,66.61s12.3,1.78,18.49-18.69c0,0,1-5.31,11.18-10.31,0,0,4.24-3,9.85-9.95s10.47-11.75,30-11.13c0,0,6.51,1,19.24-6.74,0,0-.1-3.26,16.16,3.5,0,0,5.18.16,13.56-7.87,0,0,3.55-5.65,11.54,7.57,0,0,6.32,11,15.28,7.22,0,0,5.7-3.7,8.05,4.77,0,0-1.06,15,10.65,13.71a11.06,11.06,0,0,1,5.12,9.82s6.75,2.71-1.51,9.16c0,0-6.51-1-8.4,9.24,0,0,7.11,19.37-26.78,14.66,0,0-8.78-3.8-24.45,9,0,0-13.14,13.68-44.8,1.26,0,0-10.93-7-34.77.23,0,0-24.94,10.44-35.79-7.38C9,84.67,2.67,72.43,16.35,66.61Z"/><path class="cls-3" d="M31.05,70.86s3.4-20.2,22.79-29.72c0,0,1.82,1.06,10.36-7.36C64.2,33.78,73.69,20,88,24a16.44,16.44,0,0,0,17.86,1.31s9.56-3.72,20.34,4.32a19.34,19.34,0,0,0,19,4.31s10.32-2.14,13.49,11.58c0,0,2.68,7.46-5,10.93,0,0-4.57.62-1.5,8.21,0,0,8.72,3.84-7.87,6.46,0,0-9.11-2.67-24.73,9.88,0,0-3.48,12.76-40.44-1.6,0,0-13-6.62-28.42-4.9C50.72,74.53,34.92,77.42,31.05,70.86Z"/><path class="cls-4" d="M50.91,49.74s7.44-.09,22.51-9.77c0,0,16.53-12.65,25.2-3.59,0,0,11.52-4.36,20-1,0,0,25.28,5.14,19.16,21.8,0,0-1.82,15.52-19.79,10.69,0,0-6.12.08-3.93,2.58,0,0,1.87,12.4-19.34,4.29,0,0-39.69-15.29-46.5-11.95C48.2,62.76,38.46,55.52,50.91,49.74Z"/><path class="cls-5" d="M64.77,41.42c2.57-3.78,8.15-6.48,12.8-6.48,2.66-.11,5,.43,7.8.11,2-.64,1.93-1.08,3.14-1.84l0,.11c3.22-2.33,10-1.51,14.57.55,6,2.71,8.76,9.65,7.73,15.17C108.2,63.22,95.51,69.49,80.84,66.55,74,65,69.55,62.54,66.31,56.16,64.19,51.82,62.26,45.75,64.77,41.42Z"/><path class="cls-6" d="M81.83,38.4s4.45,1.75,7.64-1.5c0,0,5.53-4.55,11.38-.1,0,0-6-.87-7.59,2,0,0-3.45,7-9.45,3.57,0,0-9.25-4.66-11.91-.65C71.9,41.76,73.3,36.66,81.83,38.4Z"/><path class="cls-6" d="M69.26,52.18a13.53,13.53,0,0,0,9.65,9c7.7,1.81,10.8-2.8,14.84-1.82,0,0-3.72.29-5.19,2.24s-6.78,4-11.46,1.53S70.52,57.84,69.26,52.18Z"/><path class="cls-7" d="M39.26,68.41c5.63-2.78,4.34-6.15,17.49-2.09s29.93,11.61,35.8,12.44c0,0-7.32,1.54-21.28-4.33s-19.42-5.18-23.06-3.22S33.89,71.07,39.26,68.41Z"/><path class="cls-8" d="M118.35,37.37s12,2,14.27,7.27,3.08,16.08-2.94,18.46-13.84.14-15.66,2.38c0,0,.7-3.78,5.31-3.78s10.08-.42,10.08-5.17,1.67-10.07-4.34-11.89S112.76,38.62,118.35,37.37Z"/></g></g></svg>