<svg xmlns="http://www.w3.org/2000/svg" width="40" height="40"   viewBox="0 0 167.77 175.85"><defs><style>.cls-1{fill:#efb86f;}.cls-2{fill:#ef6406;}.cls-3{fill:#bc4c00;}.cls-4{fill:#e53000;}.cls-5{fill:#f77b00;}.cls-6{fill:#ffcb80;}.cls-7{fill:#f78c00;}.cls-8{fill:#ffc97b;}.cls-9{fill:#f96500;}.cls-10{fill:#ff8533;}.cls-11{fill:#f45100;}.cls-12{fill:#ea0000;}.cls-13{fill:#fca71f;}</style></defs><g id="Layer_2" data-name="Layer 2"><g id="Layer_1-2" data-name="Layer 1"><path class="cls-1" d="M49.7,84.89s3.24.67,4.46.16S65,67.71,66.7,66,75,57.81,79.3,58.83c0,0-9.66,7.32-12.4,11.65S57.3,88.33,56,89.29,48,89,48,89Z"/><path class="cls-1" d="M68.89,70a32.33,32.33,0,0,1,9.71,6.35S68.17,74.24,66.94,74.6a6.87,6.87,0,0,1,2-4.56"/><path class="cls-2" d="M81.27,129s-.33,3.13,1.35,3.68c0,0,1.61,3.42,3.11,3.31s13.44-13.89,15.66-18.09,4.35-25.38,2.38-27.88c-.86-1.1-1.59-.13-2.52-.27.06-1.75-1.29-1.94-1.68-1.39-.69,1-15.65,26.73-18.3,40.64"/><path class="cls-3" d="M101.13,89.73s-.07.44-.24,1.21a28.54,28.54,0,0,1-.92,3.12c-.23.63-.49,1.31-.78,2s-.61,1.46-.94,2.22l-1,2.36c-.35.8-.7,1.61-1,2.44s-.62,1.64-.88,2.47-.5,1.64-.71,2.45-.41,1.57-.58,2.32-.32,1.45-.46,2.1c-.28,1.3-.51,2.39-.68,3.16s-.27,1.19-.27,1.19,0-.44.08-1.22.15-1.89.32-3.22c.08-.67.18-1.39.31-2.15s.28-1.56.46-2.38.4-1.67.66-2.52.55-1.71.88-2.54.7-1.66,1.06-2.47L97.5,98l1.06-2.16c.33-.69.65-1.33.92-1.94.55-1.21,1-2.24,1.24-3l.41-1.15"/><path class="cls-3" d="M85.12,132.71l1.11-1.3c.7-.84,1.71-2,2.9-3.45.59-.72,1.2-1.52,1.85-2.36s1.28-1.76,1.93-2.72a35.08,35.08,0,0,0,1.82-3,27.14,27.14,0,0,0,1.52-3.33A33.56,33.56,0,0,0,97.4,113c.31-1.17.59-2.33.81-3.47s.4-2.24.56-3.29.27-2,.38-3c.2-1.85.37-3.41.48-4.48s.19-1.7.19-1.7,0,.62,0,1.71,0,2.65-.13,4.52c0,.93-.12,2-.22,3s-.24,2.2-.44,3.36-.44,2.36-.76,3.56a33.74,33.74,0,0,1-1.16,3.57,27.34,27.34,0,0,1-1.6,3.42c-.61,1.08-1.26,2.11-1.93,3.08S92.2,125.2,91.52,126s-1.36,1.59-2,2.27c-1.27,1.38-2.38,2.47-3.16,3.23l-1.24,1.18"/><path class="cls-3" d="M82.05,129.51a6.11,6.11,0,0,0,.52-.83,18.1,18.1,0,0,0,1-2.36c.17-.49.36-1,.57-1.61s.39-1.19.61-1.81.43-1.29.65-2,.46-1.34.7-2,.49-1.34.74-2,.53-1.3.8-1.91.56-1.2.86-1.74.58-1.06.86-1.52a21.14,21.14,0,0,1,1.51-2.12l.65-.74-.49.85c-.31.54-.72,1.33-1.18,2.28-.22.48-.47,1-.7,1.55s-.48,1.16-.73,1.76-.48,1.27-.72,1.92-.49,1.31-.72,2-.49,1.34-.73,2-.5,1.3-.73,1.92-.5,1.22-.75,1.79-.49,1.09-.72,1.57a12.56,12.56,0,0,1-1.33,2.25,5,5,0,0,1-.67.73"/><path class="cls-4" d="M63.85,59.09s2.27-1.17,6.22-3.29,9.56-5.19,16.21-9c3.33-1.91,6.87-4.06,10.65-6.34a54.9,54.9,0,0,1,12.86-5.63,31.62,31.62,0,0,1,7.39-1.21,26,26,0,0,1,3.84.15,20.92,20.92,0,0,1,3.82.87,17.9,17.9,0,0,1,6.75,4,20,20,0,0,1,2.61,3l.29.4.27.43.52.81c.32.59.67,1.17.93,1.77a27.75,27.75,0,0,1,2.29,7.51,42.62,42.62,0,0,1,.49,7.71A73,73,0,0,1,137,75a123.71,123.71,0,0,1-4,13.33c-1.48,4.14-2.73,8.1-3.67,11.8a65,65,0,0,0-1.92,10.24,26.59,26.59,0,0,0,.23,8,11.58,11.58,0,0,0,2,4.71,8.59,8.59,0,0,0,.91,1l.34.33-.37-.3a8.3,8.3,0,0,1-1-1,11.63,11.63,0,0,1-2.29-4.69,26.62,26.62,0,0,1-.55-8.13,66.2,66.2,0,0,1,1.72-10.41c.93-3.75,2.16-7.75,3.61-11.92a119.77,119.77,0,0,0,3.86-13.24,71.35,71.35,0,0,0,1.91-14.54c.05-5-.57-10.09-2.76-14.59-.26-.57-.58-1.08-.87-1.61l-.52-.81-.25-.38-.28-.38a18.39,18.39,0,0,0-2.45-2.76A16.43,16.43,0,0,0,124.37,36a18.55,18.55,0,0,0-3.53-.78,24,24,0,0,0-3.59-.11,30.43,30.43,0,0,0-7,1.2A53.24,53.24,0,0,0,97.82,41.9c-3.74,2.31-7.34,4.47-10.66,6.39-6.67,3.86-12.3,6.94-16.25,9.07s-6.23,3.32-6.23,3.32Z"/><path class="cls-4" d="M64.1,57s1.77-1,4.8-3c1.51-1,3.32-2.26,5.38-3.73S78.6,47,81,45s5-4.12,7.61-6.55c1.33-1.18,2.62-2.48,4-3.78s2.63-2.7,3.94-4.16c2.61-2.87,5.22-6,7.91-9.07s5.45-6.26,8.45-9.22a53.68,53.68,0,0,1,9.78-7.89A28.72,28.72,0,0,1,134.14.2,27.41,27.41,0,0,1,140,.12c.48.05.95.13,1.42.19a7.21,7.21,0,0,1,.73.11l.67.14c.9.21,1.79.4,2.66.61a36.76,36.76,0,0,1,9.38,4,34.45,34.45,0,0,1,6.57,5.54,30.93,30.93,0,0,1,3.92,5.31,28,28,0,0,1,1.9,3.8,13.19,13.19,0,0,1,.52,1.4s-.17-.49-.58-1.38a27.52,27.52,0,0,0-2-3.69c-.23-.39-.52-.78-.81-1.18s-.58-.85-.94-1.27l-1.07-1.32c-.4-.44-.82-.88-1.25-1.36a33.81,33.81,0,0,0-6.61-5.23,36.19,36.19,0,0,0-9.18-3.76l-2.67-.55-.68-.14-.66-.08c-.45-.05-.91-.12-1.36-.16a26,26,0,0,0-5.64.14,27.3,27.3,0,0,0-11,4.13,51.91,51.91,0,0,0-9.46,7.81c-2.92,2.94-5.62,6.1-8.27,9.23s-5.22,6.26-7.83,9.21c-1.29,1.46-2.65,2.87-3.94,4.25s-2.64,2.66-4,3.88c-2.62,2.49-5.21,4.7-7.65,6.69s-4.75,3.73-6.79,5.26-3.89,2.78-5.42,3.8c-3,2-4.87,3.13-4.87,3.13Z"/><path class="cls-5" d="M45.72,51.5s37.63-21.6,44-27.35c0,0-5.6,7.19-7.11,9.83l4.19-2S75.21,49.54,69.13,55c0,0,5.22-.94,5.61-.54,0,0-8.84,6.73-11.71,11.82S57.46,84.14,50.56,86.93,37.46,61.09,45.72,51.5"/><path class="cls-2" d="M36.83,129.45S53.58,93.61,52.22,85.09s-16.33,29.08-16.33,29.08Z"/><path class="cls-1" d="M39.24,96.61s11.31,9.41,14.16,8S67.75,86.12,68.53,86.2s7.29,4.47,8,5.15c0,0-5.89-8.71-8.41-10S52.85,99.94,52.85,99.94s-8.28-7.35-9.22-7.76-4.39,4.43-4.39,4.43"/><path class="cls-6" d="M36.69,102.69s9.39,9.13,12.94,9.37,14.6-21.51,15.37-22,7.12,4,7.12,4-4.54-8.81-6.79-9.14-11.75,20.9-13.48,21.77-11-8.17-11-8.17Z"/><path class="cls-6" d="M42.26,95.19s10,4.14,12.05,4.06S65.27,79,66.58,78.76s11.27,5.82,11.71,6.09c0,0-9.36-11-10.85-11.6S55.42,93,54.64,93.79s-9.26-3.38-9.26-3.38Z"/><path class="cls-6" d="M45.46,89.17s7.3,3.49,10.36,2.68,11.95-19.48,13.33-21,11.78-2.45,11.78-2.45-11.06-2.18-13.07-1.24S58,86.08,56.43,87.3s-8.14-2.73-8.14-2.73Z"/><path class="cls-2" d="M41.27,115.16s-.44,6.06.46,9.35c0,0-.78-2.68,3.87-6.85s9.64,1.63,10.84,3.16c0,0-6.44-2.57-9.1.12s-4.23,6.54-2.51,10.88A15.11,15.11,0,0,1,50,123.53c4.23-3.4,9.44,1.76,9.44,1.76s-7.15-.54-9,1.62-5.46,8.42,1.8,12.23c0,0-1.25-8.66,5.69-10.44,0,0-5.62,7.77-1,11.91,0,0,.55-11,6.33-13.87,0,0-3.84,8.75.23,11.07s7.08-2.28,7.08-2.28-4.07-1.45-1.59-7.26c-.22.56,1.5,7.95,7.21,5.43s-1.1,13.15-12.57,16.09S41.49,146,37.75,140.52s-4.57-20.4,3.52-25.36"/><path class="cls-3" d="M52.18,138.25s.15.44.33,1.08c0,.15.09.33.14.49s.13.36.17.55.12.39.19.59a5.89,5.89,0,0,0,.21.59,4.76,4.76,0,0,0,.21.6l.21.56c.08.18.14.37.21.54s.13.33.19.49.22.55.29.74.1.31.1.31l-.25-.19a4.2,4.2,0,0,1-.61-.57,5.41,5.41,0,0,1-.35-.43,3.84,3.84,0,0,1-.33-.52,5.49,5.49,0,0,1-.31-.59c-.09-.21-.17-.42-.25-.63s-.14-.44-.19-.66-.08-.44-.12-.65,0-.42,0-.62a5,5,0,0,1,0-.55,4.36,4.36,0,0,1,.2-1.13"/><path class="cls-3" d="M56.69,139.86s.4.46.94,1.14l.45.55c.15.2.32.4.49.61s.35.42.53.64.36.44.56.65.37.44.56.64l.55.63.53.58.46.5a2,2,0,0,0,.8.54.61.61,0,0,0,.39,0,.89.89,0,0,1-.4.18,1.8,1.8,0,0,1-1.12-.29,6.15,6.15,0,0,1-.62-.42c-.2-.16-.42-.32-.63-.52s-.43-.38-.63-.59l-.61-.66-.55-.7-.49-.73c-.15-.24-.28-.48-.4-.7s-.23-.46-.32-.66a7.4,7.4,0,0,1-.49-1.41"/><path class="cls-3" d="M45.16,131.38s0,.7-.12,1.72c0,.25-.06.54-.09.82s-.05.6-.1.92-.07.63-.08,1-.06.66-.08,1,0,.66,0,1,0,.64,0,.95,0,.61.05.9.06.54.1.79.07.48.11.68.07.38.11.52c.07.31.1.48.1.48s-.09-.15-.28-.4a3.22,3.22,0,0,1-.28-.48,4.44,4.44,0,0,1-.3-.65,6.07,6.07,0,0,1-.26-.82,7.11,7.11,0,0,1-.19-.94,6.93,6.93,0,0,1-.08-1c0-.35,0-.7,0-1.05s.06-.69.11-1,.12-.66.18-1,.15-.62.23-.91.16-.55.24-.8a14.48,14.48,0,0,1,.64-1.61"/><path class="cls-3" d="M41.79,123.38s-.06,1-.26,2.51c-.05.38-.1.78-.16,1.21s-.12.88-.2,1.34-.15.95-.23,1.44-.17,1-.26,1.47-.18,1-.28,1.47-.18,1-.28,1.43-.2.9-.29,1.33-.19.81-.28,1.18c-.17.73-.34,1.34-.46,1.77l-.2.67s0-.25,0-.7,0-1.07.1-1.83c0-.37.07-.78.12-1.21s.1-.89.17-1.35.13-1,.21-1.45.17-1,.26-1.48.2-1,.29-1.47.21-1,.32-1.42.22-.9.33-1.33.22-.81.32-1.18c.4-1.45.77-2.4.77-2.4"/><path class="cls-7" d="M17.38,81.66S6,98.88,3.89,114.39A55.09,55.09,0,0,0,.4,140.88a26.81,26.81,0,0,0,13.14,19.91S28.11,181.55,48,174.33c0,0,17.46-2,25.37-15.54,0,0,11.8-10.52,13.61-22.42s-5.53-8.67-5.53-8.67S65.84,138.24,63,145.6c0,0-5.92-4.32-11.82-1.9,0,0-5.3-5.64-10.3-7.3,0,0-1.4-5.67-4.08-7,0,0,10.62-30,7.33-37.75s-26.78-10-26.78-10"/><path class="cls-8" d="M9,157.53s11.1-5.12,15.64-11.43,11.9-9.38,16.25-9.7c0,0-11,4.38-14.34,11.6S15,162.59,15,162.59s-.86-1.07-1.51-2.1a11.34,11.34,0,0,1-4.44-3"/><path class="cls-8" d="M1.45,122.25s4.74,2.87,9.63,2.45,16.8-.66,25.75,4.75c0,0-9.46-9-15.86-9.34s-11.62-1-17.08-5.72a34.3,34.3,0,0,0-2.44,7.86"/><path class="cls-8" d="M51.21,143.7s-5,8-5,13.43,1,10.27.41,12.54a36.53,36.53,0,0,1-2.29,5.7,12.92,12.92,0,0,0,3.71-1,31.7,31.7,0,0,0,3.82-.76s2.08-6.85,1.13-8.89-2.85-5.47-3-10,2-11.24,2-11.24Z"/><path class="cls-8" d="M63,145.6s-1,5.19,1.12,8.94a12.49,12.49,0,0,0,8.1,6l1.12-1.74.88-.84s-4.73.62-7.89-2.64S63,145.6,63,145.6"/><path class="cls-8" d="M14,87.4S17.84,100,25.64,102.18s11.23-1.61,11.23-1.61-5.78,2.64-12.72-5.31S17,82.07,17,82.07s-2.2,3.85-3,5.33"/><path class="cls-9" d="M16.29,83.64A117.41,117.41,0,0,1,34,59.17C45,47.7,71.21,29.94,85.15,14.12c0,0-26.95,31.14-39.9,40.52,0,0-1.38,8.11-.68,9.84s11.51.89,11.51.89S54.57,85,53.26,87,44,103.14,36.38,104.56,17.55,91.76,16.29,83.64"/><path class="cls-10" d="M16.29,83.64s6.43-8.6,9.2-10.17,7.26,1.72,8.87,1.31,10.12-3.26,10.12-3.26S38,75.77,36.54,76.94s-3.23,4.46-3.23,4.46-2.64-3.93-3.88-4.77-4.43,1-5,2-3.9,14.61-3.9,14.61-3.58-4.8-4.21-9.55"/><path class="cls-11" d="M71.33,46.86l-.39,1a22.12,22.12,0,0,1-1.25,2.42c-.29.48-.61,1-1,1.53s-.79,1.08-1.25,1.61S66.48,54.46,66,55s-1.1,1-1.68,1.51-1.2.93-1.82,1.34-1.26.8-1.87,1.15-1.2.65-1.73,1A7.5,7.5,0,0,0,57.48,61a4.21,4.21,0,0,0-1.2,2.24,3.32,3.32,0,0,0,0,.74c0,.18,0,.27,0,.27L56.2,64a3.44,3.44,0,0,1-.12-.76,4.2,4.2,0,0,1,1-2.6,7.1,7.1,0,0,1,1.38-1.28c.53-.39,1.12-.75,1.71-1.11s1.18-.76,1.77-1.16,1.18-.87,1.75-1.32,1.12-1,1.65-1.45,1-1,1.5-1.49.92-1,1.32-1.49.77-1,1.1-1.4c.67-.89,1.17-1.67,1.53-2.22l.55-.87"/><path class="cls-11" d="M57.39,64.59a2.05,2.05,0,0,1,.5-.61,2.32,2.32,0,0,1,.3-.22,2.71,2.71,0,0,1,.37-.21A4.31,4.31,0,0,1,59,63.4a3.27,3.27,0,0,1,.45-.1,2.53,2.53,0,0,1,.47,0,1.68,1.68,0,0,1,.45,0,1.64,1.64,0,0,1,.41.1,1.91,1.91,0,0,1,.36.13,2,2,0,0,1,.47.31l.17.16-.22,0-.53,0-.33,0-.36,0-.38,0a2.45,2.45,0,0,0-.38,0c-.13,0-.26,0-.38.06a2.32,2.32,0,0,0-.38,0c-.12,0-.25,0-.36.06l-.32.06-.74.14"/><path d="M60.6,48.75c.78,1.07,0,3-1.8,4.28s-3.84,1.48-4.62.41,0-3,1.81-4.27,3.83-1.48,4.61-.42"/><path class="cls-12" d="M55.34,45.91s-.56.62-1.58,1.68-2.47,2.56-4.31,4.27a29.18,29.18,0,0,1-3.15,2.63l-.43.27a.89.89,0,0,1-.26.11l0,0c-.09.49-.19,1-.29,1.51s-.19,1.17-.29,1.78a26.48,26.48,0,0,0-.43,4.72,2.86,2.86,0,0,0,.17,1,.2.2,0,0,0,.07.12h0l0,0h0s0-.05,0-.05h0l.12,0a3.93,3.93,0,0,0,.52.13,23.4,23.4,0,0,0,2.43.29c1.65.14,3.32.22,5,.29l1.65,0,2.08.06c-.08.71-.16,1.38-.23,2-.19,1.55-.38,3.06-.55,4.49s-.36,2.77-.51,4c-.33,2.49-.63,4.56-.84,6s-.34,2.27-.34,2.27,0-.84.15-2.29.25-3.55.47-6.06c.11-1.25.23-2.6.36-4s.28-2.94.42-4.5c0-.25,0-.51.08-.77l0-.2v-.09h0v0h-.32l-.81,0-1.66,0c-1.65-.06-3.33-.13-5-.26-.84-.09-1.68-.16-2.54-.33a2.93,2.93,0,0,1-.68-.19l-.18-.07a1.24,1.24,0,0,1-.24-.16,1.09,1.09,0,0,1-.26-.4,3.64,3.64,0,0,1-.24-1.39,28.29,28.29,0,0,1,.52-4.89c.1-.61.22-1.2.35-1.79l.18-.86.24-1,.42-.17c.06,0,.12,0,.18-.08l.39-.23a30.7,30.7,0,0,0,3.17-2.44c1.9-1.62,3.46-3,4.54-4l1.7-1.55"/><path class="cls-13" d="M16.26,150.22c-7,4.13-9.54.37-12-5.94s-1.21-15.65,0-16.82,7.12,0,11.15-.5,14.29,1.93,14.76,6.41-10.55,14.88-13.87,16.85"/><path class="cls-13" d="M22.35,118c-6.52-.22-14.63-2-15.25-4.09s3.67-17.85,5.83-18,7.16,6.59,11,7.69,7.58,1.47,8.5,4.19S28,118.21,22.35,118"/><path class="cls-13" d="M43,170.47c-1.72,3.45-12.11,1.95-15.86.05s-8.43-6.55-4.76-12.6S32,143.61,34.49,143s8,5.59,8.26,9.47,1.75,14.89.21,18"/><path class="cls-13" d="M63.24,166.16c-4.84,3.53-7.85,2.93-8.31,1.45s-.39-4.67-1.47-6.18-1.66-7.51.54-10,7.79,4.61,9.24,6,5.62,4.53,0,8.65"/><path class="cls-1" d="M32.72,72.54l4.75.23s7.31-.94,7.65-1.9,3.22-3.25,3.22-3.25-5.38-.11-6.48-1.1-1.63-4.61-1.63-4.61-7.43,8.65-7.51,10.63"/></g></g></svg>