<svg xmlns="http://www.w3.org/2000/svg" width="40" height="40"   viewBox="0 0 89.4 111.99"><defs><style>.cls-1{isolation:isolate;}.cls-2{fill:#fff;}.cls-3{opacity:0.18;}.cls-3,.cls-5{mix-blend-mode:multiply;}.cls-4{fill:#b2968e;}.cls-5{opacity:0.12;}.cls-6{fill:#ca9e90;}.cls-7{opacity:0.13;}</style></defs><g class="cls-1"><g id="Layer_2" data-name="Layer 2"><g id="Layer_1-2" data-name="Layer 1"><path class="cls-2" d="M89.23,63.81c1.22,15.35-8.32,24.73-20.72,24.56a12.72,12.72,0,0,1-1.18,1.25v0a11.62,11.62,0,0,1-1,.93,1.33,1.33,0,0,1-.16.17c-.2.16-.41.33-.63.49s-.43.32-.63.46l-.08,0c-.21.16-.45.31-.68.46l-.7.42a22.37,22.37,0,0,1-3,1.42h0l-.07,0a23.18,23.18,0,0,1-3.31,1H57c-.4.1-.82.18-1.23.27s-.53.09-.79.15A30.38,30.38,0,0,1,49.3,96h0a19.37,19.37,0,0,1-2.52-.15,1.5,1.5,0,0,1-.36,0,26.61,26.61,0,0,1-2.91-.45,5.42,5.42,0,0,1-.89-.19h0l-.89-.23h0c-.27,0-.53-.14-.79-.21l-.1,0c-.24-.06-.46-.13-.69-.21h0a7.76,7.76,0,0,1-.89-.31c-.26-.1-.53-.19-.79-.3s-.59-.21-.9-.34c-.54-.24-1.07-.49-1.58-.75-.2-.09-.39-.2-.59-.3-.29.27-.56.54-.86.8s-.52.45-.77.65-.5.39-.75.57c-6.59,4.81-14.59,4.33-21.89-.12C1.6,88.58-1.89,70.73,1,61.53,7,40,31.51,29.8,24.91,1.08A52.16,52.16,0,0,1,39.65.19C45.18,31.55,86.57,29.77,89.23,63.81Z"/><g class="cls-3"><path class="cls-4" d="M62.39,74.54C60.84,81.21,56,92.16,47.09,87.45c-.25-.14-.23-.45-.18-.68,1.59-7.89,4.05-14.22.67-22.18-2.51-5.93-6.16-11.05-9-16.74A40.7,40.7,0,0,1,34.9,38.6,8.63,8.63,0,0,1,35,33.77a5,5,0,0,1,1.48-2.13,5.14,5.14,0,0,1,.89-.66,10.09,10.09,0,0,1,1.68-.77c2.43-.81,4.35,1,5.82,2.6,3.63,3.94,6.7,8.33,10.47,12.24C63.78,53.75,64.6,63.09,62.39,74.54Z"/></g><g class="cls-5"><path class="cls-4" d="M84,58.52c1.62,9-.18,19.89-9.21,24.12l-.1,0h0c-.75.42-1.63.52-1.84-.14-.91-3,.06-5.77,1-8.64,1.88-5.42,2-11-.64-16.32-4.54-9-13.12-14.69-18.59-23a.58.58,0,0,1,.18,0,.62.62,0,0,1-.35-.29c-.66-1,1.21-2,2.18-2l.28.09a.73.73,0,0,1,.41.29,2,2,0,0,1-.1-.21C69,36.43,81.67,45.4,84,58.52Z"/><path class="cls-6" d="M57.36,32.68a.73.73,0,0,0-.41-.29l-.28-.09a.9.9,0,0,1,.27.06l.32.11A2,2,0,0,0,57.36,32.68Z"/><path class="cls-6" d="M54.84,34.59a.58.58,0,0,0-.18,0l-.17-.25A.62.62,0,0,0,54.84,34.59Z"/></g><g class="cls-7"><path class="cls-4" d="M24.46,55.65c-3.32,8.55.91,15.82,4.62,23.4a.39.39,0,0,1,0,.09c1.67,4.28,2.3,8.92-1.91,11.7-3.5,2.3-8.21-.38-10.53-3.21-9.07-11-3.85-29.48,3.31-40.46.18-.25.34-.51.52-.76.38-.57,1.93-1.8,2.71-1.32a4.38,4.38,0,0,1,.63.44C27.22,48.09,25.89,52,24.46,55.65Z"/></g><path class="cls-6" d="M66.29,90.57a11.62,11.62,0,0,0,1-.93v0A9.38,9.38,0,0,1,66.29,90.57Zm-2.88,2.05.7-.42-.7.41Zm-3.07,1.46a25,25,0,0,1-3.31,1A23.18,23.18,0,0,0,60.34,94.08ZM46.75,95.8a19.37,19.37,0,0,0,2.52.15c-.82,0-1.67-.07-2.48-.16Zm-.36,0a1.5,1.5,0,0,0,.36,0,2,2,0,0,1-.33,0ZM37.5,93.5c.31.13.61.24.9.34-.3-.11-.59-.22-.88-.36Z"/><path class="cls-6" d="M86.91,95c-5.2,4.32-11.15,5.39-17.22,5.07C71,98,69.62,95.68,67.9,93.35A9.8,9.8,0,0,1,70,93.23a6.64,6.64,0,0,1,4.88,2.65c.61.76,3.35-1,2.9-1.57a8.31,8.31,0,0,0-3.09-2.43c.28-.44,0-.77-.57-.74-2.33.11-5.19.38-6.76-1.5a11.62,11.62,0,0,1-1,.93,1.33,1.33,0,0,1-.16.17s-.07.06-.12.09a6.4,6.4,0,0,1-.51.4,5.64,5.64,0,0,1-.63.46l-.08,0c-.21.16-.45.31-.68.46l-.7.42c.17.25.35.46.53.69a15.65,15.65,0,0,1-3.49.73h0l-.07,0a23.18,23.18,0,0,1-3.31,1H57c-.4.1-.8.18-1.23.27-.26,0-.53.09-.79.15,3.06,1.13,6.4-.28,9.69-1.33,1.09,1.33,3.56,4.11,2,5.55l.34.06-.37,0c-1-.13-1.93-.26-2.88-.42-3.44-.59-6.86-1.44-10.14-2.23s-6.23-.31-9.29.22A48.83,48.83,0,0,1,49.27,96a19.37,19.37,0,0,1-2.52-.15,1.5,1.5,0,0,1-.36,0,32.12,32.12,0,0,0-6.3,2.35,20.11,20.11,0,0,1-6.66,0l-.09,0,.35-.14h0c.23-.15.45-.29.7-.43l.14.09h0c2.06.93,5-.11,7-.61a2.88,2.88,0,0,0,1.85-1.32c.09-.18.1-.31,0-.4a7.06,7.06,0,0,1-.89-.19h0a.17.17,0,0,0-.1,0A22.15,22.15,0,0,1,38.9,96c.93-.35,1.85-.68,2.77-1-.27,0-.53-.14-.79-.21l-.1,0c-.24-.06-.46-.13-.69-.21h0l-2.14.83a10.37,10.37,0,0,0,1.25-1.14c-.26-.1-.53-.19-.79-.3s-.59-.21-.9-.34A5.8,5.8,0,0,1,36.28,95a4.06,4.06,0,0,1-.36-2.29c-.2-.09-.39-.2-.59-.3-.29.27-.56.54-.86.8s-.52.45-.77.65-.5.39-.75.57a4,4,0,0,0,.69,2.47l.07.09c-.25.09-.48.18-.72.29,0,0,0,0,0,0s-.24.13-.36.21a.14.14,0,0,0,0-.06h0c.29-.75-.92-.56-1.88-.1l-.8-.35c-.86-.42-3.37,1.47-2.62,1.82a8.79,8.79,0,0,0,1.32.55,46.29,46.29,0,0,0-6.16,3.85c-1.67,1.26,1.22.32,1.83-.12a33.61,33.61,0,0,1,4.61-2.9,6.81,6.81,0,0,0-.75,1c-1.32,2.11-.25,3.67,1.48,4.47-.51.48-1,.94-1.48,1.42-2,2-2.44,3.86.6,4.75,4.27,1.25,8.9-4.94,12.53-.37.62.76,3.36-1,2.9-1.59-1.12-1.4-2.44-2.33-4.34-2.06S25.32,112,31,106.34a1.62,1.62,0,0,1,.19-.18,2.63,2.63,0,0,1,.39.06c3.82.5,8-.57,11.75-1,3.21-.42,9.24-1.14,7.15,3.93-.45,1.08,2.48-.08,2.79-.83,2.18-5.33-2.76-5.69-7.46-5.18,1.83-.37,3.65-.82,5.47-1.26a27,27,0,0,1,8.59-.68h0c.16,0,.32.07.46.1a45.1,45.1,0,0,0,4.87.64.86.86,0,0,0,.22,0s0,0,0,0a1.21,1.21,0,0,0,1.43.3h0c1.26.29,2.49.61,3.79.93a3.11,3.11,0,0,0,2.47-1.42,29.67,29.67,0,0,0,15.7-6.58C90.54,93.83,87.65,94.41,86.91,95Zm-57.82,5.12a.74.74,0,0,1-.15.08l.17-.2A.43.43,0,0,0,29.09,100.14Zm3.12.16a20,20,0,0,0,4,.14c-.7.47-1.39,1-2.06,1.47A2.82,2.82,0,0,1,32.21,100.3Zm17.73.1c-2.07.48-9.4,2.29-14,1.83,1-.7,2-1.37,3-2,.35,0,.71-.07,1.07-.13,3.35-.42,6.51-1.51,9.91-1.34a19.08,19.08,0,0,1,4.26.82A40.68,40.68,0,0,0,49.94,100.4Z"/></g></g></g></svg>