<svg xmlns="http://www.w3.org/2000/svg" width="40" height="40"   viewBox="0 0 151.47 123.61"><defs><style>.cls-1{fill:#a5cd39;}.cls-1,.cls-2,.cls-3{fill-rule:evenodd;}.cls-2{fill:#83a73f;}.cls-3{fill:#708e30;}</style></defs><g id="Layer_2" data-name="Layer 2"><g id="Layer_1-2" data-name="Layer 1"><path class="cls-1" d="M126.35,22.22c2.5-1.08,4.3-2.89,6.17-5.76,3-4.65,3-5.43,3.46-5.12s0,1.32,0,1.32,1.16-2.11,1.78-2.07,0,2.87-.21,3.4,2.75-3.7,3.69-3.26-.07,1.91-.07,1.91,2.72-1.11,3.69-.72.23,1.67-.54,2.44-.83.83-.83.83,1.39.18,1.35.87-1.48,1.08-3.68,2.23a6.18,6.18,0,0,0-2.78,2.4A21.93,21.93,0,0,0,144.22,17c2.32-2.23,2.85-.81,2.41-.13s.88-.63,1.51-.34.53,1.17-.86,2.33-1.59,1.33-1.59,1.33a8.68,8.68,0,0,1,3.62-.69c1.59.18.71,1.48.71,1.48s1.33.27,1.45,1.16-2.06,1.24-2.06,1.24,1.26.84.68,1.44-2.1,0-4-.39l-1.9-.41a37.5,37.5,0,0,1,3.94,2.48c.63.63-.14.91-.14.91a1,1,0,0,1,.38,1.22c-.36.8-2.49-.47-2.84-.66s1.08,1.86-1.79-.09-4.29-2.67-5.23-2.85,2.37,1.15,3.73,2.19,2.08,2.64,1.58,2.84l-.5.2s1.86,2.68,1.42,3.69-1.6-.25-1.6-.25-.71,3-1.4,2.3a7.46,7.46,0,0,1-1-2.95s-.83,2.7-1.72,1.82a6.1,6.1,0,0,1-1.33-2.17s-.54,1.48-1.49.38-.48-3.44-4.05-5.69a15.52,15.52,0,0,0-5.74-2.51s-6.57-.2-5.76,1.07,4.29,3.33,6.52,3.48a24.69,24.69,0,0,0,4.1.17c1.63-.1,2.61,0,2.72.35s-.69.88-.92,1.26.53.24,1.49.8,1.86,2.09,1.05,2.73-2.77.42-2.77.42-.67.73,1.44.9,3.31.14,3.88.45,0,.77,0,.77,1.4.47,1.46,1.25-.13.92-1.54,1.09l-2,.25a6.68,6.68,0,0,1,2.41.82c1,.65-.27,1.08-.27,1.08s.33-.07.22,1.24-.76,1.16-1.9.43-1.8-1-1.31-.19.72,3.19-.34,2.44A27.09,27.09,0,0,1,131.48,42c-.24-.3.32,1,0,1.33s.19,1.33-1.54.13l-1.74-1.19s.28,3.27-.87,3.06-.6-2.49-1.91-5.15-1.42-1.12-2.4,1S121.37,44,120.67,43s-.52-2.49-.92-2.24-2,2.94-2.68,1.53.73-6.65,0-6.07-2.7,2.34-3,1.2,1-2.6,1-4.52.65-4.85-.23-6.34h0a11.4,11.4,0,0,1,7,7.34c.49,1.47,1.07,3.11,1.66,4.55-.42-1.57-1-3-1.42-4.59a11.74,11.74,0,0,0-6.08-7.27,8.9,8.9,0,0,1,2.65.56,39.45,39.45,0,0,1,4.77,4.51,38.36,38.36,0,0,0,11.53,9c-.63-.42-.33-.23-1.25-.78a42.1,42.1,0,0,1-10-8.48,33.27,33.27,0,0,0-3.48-3.48c1.25.76,2.51,1.75,4.47,2.81a31.43,31.43,0,0,0,5.59,2.74l1.37.2c-.35-.08-.78-.2-1.33-.36a33.37,33.37,0,0,1-5.5-2.84c-4.3-2.43-5.08-4.37-10-4.35l-.45-.14h-.1a2.1,2.1,0,0,0-2-.62,2.89,2.89,0,0,0,.7-.28,5,5,0,0,0,2.31-1.37,17.5,17.5,0,0,0,3,0,27.28,27.28,0,0,0,3.55-.31c1.77-.17,3.47-.37,5.21-.6a.27.27,0,0,0,.19.08c4,.22,11.18,3.3,13.65,6.72a1.19,1.19,0,0,1,.24.51,1.11,1.11,0,0,0-.32-.76c-2.51-3.28-8-6-12.28-6.75,1.28-.18,2.6-.38,4-.6a47.81,47.81,0,0,1,14,.14c1,.14,1.82.37,2.75.42-1-.16-1.68-.38-2.73-.55a46,46,0,0,0-14.06-.32c-2,.3-3.91.56-5.73.78a23.35,23.35,0,0,0,8.16-3.84c2.23-1.74,4.23-3.29,6.5-5,.34-.26.7-.57,1-.84-2.84,1.87-5,3.6-7.72,5.62a23.51,23.51,0,0,1-8.52,3.78Zm-12,1.89A15,15,0,0,0,115.65,23c.86-3.49,1.62-8.95.81-12.37,1.11,3,.51,8.2-.22,11.7a42.11,42.11,0,0,0,6.23-12c-.34-2.14-.63-6.44-1.27-6.91s-1,.77-1,.77-.25-1.65-.84-1.72-.61,1.81-.95,1.22-1.09-1-1,.14.22,2.93.22,2.93-.4-.67-.81-1.27-1.58-1.58-1.75-.79,1.2,2.55,1.68,4.11-.21,1.45-.91.72-1.24-.93-1.43-.09.44,3.26.26,3-1.62-.92-1.48,0,1,1.13,2,6.62c.5,2.6-.09,4.16-.85,5.08ZM125.07,3.37c-1,1.84-1.43,4.51-2.14,6.74a44.49,44.49,0,0,1-3.82,8.57,42.35,42.35,0,0,1,4.74-5.7c3.65-3.32,5.36-5.27,9.55-8l-1.23,1A105.49,105.49,0,0,0,124,13.22c-2.24,2.09-5.79,7.32-7.64,10.14l.52,0h.26l2.47-.17-.25-.06a12.83,12.83,0,0,1,1-1.18c.93-1.07,4.49-4.15,6.23-4.55s2.25.26,2.81-.18.05-.7.05-.7,1.72-.24,1.51-.93-2.24-.4-1.83-.72a2.31,2.31,0,0,1,1.41-.76,3.94,3.94,0,0,0,2.09-.81c.29-.39-.64-.52-.64-.52l.95-.18a1,1,0,0,0,0-2,15,15,0,0,0-2.31-.25,5.73,5.73,0,0,1,1.69-.82c1.09-.34,1.52-.88,1.57-1.11s-.8-.25-.8-.25l.91-.4c.91-.39,2-.43,2.22-1.23s-2.07-.54-2.07-.54l1.27-.68c1.25-.66,1.31-1.46.51-1.72s-2.66,1.35-.78-.53.57-3-.39-2.74a13.13,13.13,0,0,0-2.83,1.92,4.65,4.65,0,0,0,.6-1.73c.11-.94-1.05-.75-2.1.68S128.16,4,128.65,3s1-2.57-.26-2.57-1.37,1.35-1.45.83-.36-.78-1.87,2.14Zm6.69,30.3c.92.24,1.16.25,1.18.2-.35-.07-.78-.14-1.18-.2Zm1.18.2.39.08C132.41,33.56,133,33.8,132.94,33.87Z"/><path class="cls-2" d="M63.81,65.94c-1.65-3,1.3-12.18,2.11-16.16a6.31,6.31,0,0,0,.14-1,23.25,23.25,0,0,0,2.17-14.09.2.2,0,0,0,0-.08c.43-3.48,0-4.05,1.51-7.61-1.64,2.64-1.53,3.93-1.78,6.32A37,37,0,0,0,64.62,24c2,4.65,3.77,10,3.5,15.23-.45-3.72-1.19-4.63-3.7-8.26a20.17,20.17,0,0,0-4.76-4.86,25.73,25.73,0,0,1,4.52,5c3.12,4.71,4.56,7.82,3.13,13.06a10.66,10.66,0,0,0-3.67-8.45A8.64,8.64,0,0,0,60.49,33c-1.91-.62-2.89-1.13-2-1.69s-1.49-1-1.71-2.59,2.86.37,2.86.37S56.93,26,57.93,25.65s.71-.54,1.27-.08-.46-.93-.24-1.77,1-1.54,2.53.66a25.42,25.42,0,0,0,2.14,2.75s-2.61-6.29-2-7,1.47,2.3,2.22,1.61-.3-1.91.25-3,3.09-.37,4.22,3.61,1.15,4.09,2.29,2.79,2.56-1.55,2.3-.55-1.22,3.46-.53,3.18,2.66-2,2.24-1.05-2.6,3.55-2.81,5c-.17,1.11.25,2.87.26,4.39-.82,2.69-1.38,3.43-3,6.31a12.77,12.77,0,0,0-.72,1.54A39.13,39.13,0,0,0,72,37.74c.1.56,1.6-2.13,2.06-2.08s.06,2.56-1.5,5.28-5,8.67-5.47,10.05-1.81,2.71-1.78,7.93.43,6.87-.45,6.71-1,.31-1,.31ZM66,47.79a9.9,9.9,0,0,0,.55-7c-.29.08-1.72-1.68-2.87-3-1.56-1.73-2.43-1.13-2-.25s2.13,2.29-1.19.43-3.3-.17-3.3-.17,2.76,1.87,2.23,1.72-2.4.1-1,1.13,3.13,1.06,1.83,1.4-1.93,1.12.89,1.55C63.43,44,65.7,45.21,66,47.79Z"/><path class="cls-1" d="M66.27,52.11l.38-.58c2-4.11,3.33-6.46,4.89-8.32a21.83,21.83,0,0,1,3.86-4.79,30,30,0,0,0,1.76-4.25.26.26,0,0,1-.09-.16c0-.22,0-.44-.06-.67-1.62,2.19-2.56,4.51-3.61,5.8s-6.94,7.64-7.13,13Zm1.84-2.55a32.11,32.11,0,0,1,3.59-6,.19.19,0,0,0,.16-.08c.14-.19.26-.38.37-.54,1.9-2.12,4.3-3.68,8.9-6.92a101.24,101.24,0,0,1,11-6.87,5.26,5.26,0,0,1,1.57.21c.49.26,0,.49-.48,1.75s-3.5,1.38-9.56,4.27c-5,2.41-11.84,9.36-15.59,14.14ZM92,29.19a94.13,94.13,0,0,0-11,6.65,82.64,82.64,0,0,0-7.73,5.62,47.61,47.61,0,0,1,3.53-3.87c4.21-4.67,9.63-8.3,13.27-13.42.93-1.31,1.54-2.3,2.37-3.69-1,1.38-1.24,2.35-2.48,3.57-4.57,4.48-9.08,9-13.65,13.5.35-.8.63-1.57.9-2.34s.6-1.81,1-2.73l0-.08c.16-.43.33-.86.53-1.31.88-1.33,1.37-2.48,2.92-5.06,2.15-3.56,2.68-1.82,2.12-.89s1.46-1.23,2.37-2.35a9.69,9.69,0,0,1,2.6-2.53c1.07-.62-.81,1.58-1.69,2.9S94.47,17,94.47,17s1.22-1.15,1.66.13-1.79,5-1.79,5a3.06,3.06,0,0,1,2.13-.23c1,.36-3.4,4.3-3.4,4.3a11.89,11.89,0,0,1,3-1.34c1.51-.36.61,1.89-1.27,2.49a11.33,11.33,0,0,0-3.42,1.92ZM77.74,32.42l-.28.35-.08.08c0,.17.05.34.07.51.1-.29.21-.57.32-.86A.13.13,0,0,1,77.74,32.42Z"/><path class="cls-1" d="M75.18,37.51c1.33-6-4.68-12.43-8.33-15.48s-4-3.79-2.85-4.27a5.69,5.69,0,0,1,1.8-.49s-2.06-1.48-1.57-2.2A2.92,2.92,0,0,1,66,14.22s-.47-1.59-.85-2.73,1.37-.66,2.18.28.61-.62,1.4-.91,1.37,2.32,1.37,2.32.29-2.55,1.37-2,1.5,4.56,2.69,7.11,2,4.92,2.71,1.92,1.22-6.07.45-8.55-.53-4.52.65-3.1,2.48,2.21,2.18-1.2,1.11-4.58,1.57-2.62.08,2.19,2-.83,1.8-4.29,3.39-2.81S87,4,88,3.78s2.85-1.22,3.62.24-.42,1.89-1,2.16,1.35.62.42,1.54-2.7,1.15-4.2,3-1.08,2.47.51,1.44,1.49-1.95,3.78-1.58,1.18,1,2.6,1.84,2.49.71,1.76,1.61-3.07.11-4.34.65,1.8.53,2.12,1.17-4.1,1.5-5.62,2.22.27.13-1,1.18-1.42.14-2.78,1.83a26,26,0,0,0-3.82,6.65l-.51,1.14a19.44,19.44,0,0,0-1.35,2.57c.12-2.08.45-5.1.89-7.92v0c2.08-5,3.83-6.94,8.66-9.44l.85-.49c-4.95,2.14-7.11,3.9-9.23,8.29a30.5,30.5,0,0,1,1-4.39A41.66,41.66,0,0,1,85.15,6.85a15.44,15.44,0,0,0,1.09-2.1c-.59,1-.38.68-1.2,2A39.22,39.22,0,0,0,80.1,17.36a40.6,40.6,0,0,0-1.32,5.76l-.1.22a.24.24,0,0,0,0,.2,76.88,76.88,0,0,0-1,8.86.42.42,0,0,0,0,.1c-.11.29-.22.57-.32.86a38.49,38.49,0,0,0-5.91-16.3,19.24,19.24,0,0,0-3.23-3.93,27.3,27.3,0,0,1,3.06,4A38.86,38.86,0,0,1,77.07,34a.26.26,0,0,0,.09.16c-.35,1-.69,2-1.15,3C75.48,37.85,75,38.17,75.18,37.51Z"/><path class="cls-2" d="M73.67,71.17a25.36,25.36,0,0,0,4-9.47c.68-3.83,1.36-3.41,1.68-2.17s.12,1.6.12,1.6A31,31,0,0,0,81.63,54c.42-3.28,1.88.18,1.66,1.22s3.2-5.86,4.41-4.63-.84,4.54-1.8,6.41c-.72,1.38,1.91-1.12,3-1.27,1.65-.22-2.37,4.89-3.5,5.64-.57.38,1.4,0,1.6.83s-.58,1-2.31,2.54-1.12,1.6-.18,2.16S85.85,68.38,83.1,69a18.4,18.4,0,0,0-6.39,2.34c-2.22,1.28-3-.12-3-.12Zm.59-.3a.22.22,0,0,0,.33.3c1.11-1.3,2.25-2.66,3.33-4.09,2.43-1.79,2-1.41,5-2.8a3.75,3.75,0,0,0,1.4-.92,6,6,0,0,1-1.48.73c-2.56,1-2.76,1-4.17,1.94a35.89,35.89,0,0,0,2.68-4.27.2.2,0,0,0,.2-.09C83,60.34,84,59.81,85.4,58.33c-1.23.91-2.43,1.65-3.58,2.58a20.81,20.81,0,0,0,1.83-5.5.72.72,0,0,1,.17-.29c-.57.42-.5,1.63-.63,2a21.7,21.7,0,0,1-2,4.26h0s0,0,0,0a54.13,54.13,0,0,1-3.61,5.32l-.3.21a.22.22,0,0,0-.07.27C76.19,68.61,75.16,69.85,74.26,70.87Z"/><path class="cls-2" d="M61.69,73.52a51.87,51.87,0,0,1,12.72-2.81l-.15.16a.22.22,0,0,0,.33.3l.43-.51c4.33-.24,6.22.48,8.56-.89,4-2.33,2.59-12.79,4-17.68s4.45-2,4.45-2-.3-3.63,1-4.19,2.09,2.72,2.09,2.72,1.7-5.58,3.51-4.63-.78,4.3-.78,4.3,2-2.49,2.68-1.31-1.45,3.65-1.45,3.65,2.69-1.58.15,3.09c-1.5,2.74-7.6,10.81-10.38,13l-.37.29a14.34,14.34,0,0,0-1.79,1.39c1-1.85,1.75-3.57,2.81-5.48a.22.22,0,0,0,.21-.2c1.54-2.94,8.39-10.52,8.72-13.34-.75,2.66-5,7.23-7.57,10.81,1.44-3.26,3-7.9,3.07-10.26a1.18,1.18,0,0,0,0-.2,1.54,1.54,0,0,0-.08.19,42.08,42.08,0,0,1-4.52,12.49c-.89,1.54-2,3.92-3,5.58-.54.87-1.07,1.13-1.48,1.86a52.12,52.12,0,0,1,4.44-3,24.12,24.12,0,0,1,3.77-1.46,26.35,26.35,0,0,1,6.43.7.18.18,0,0,0,.18.08H100a56.71,56.71,0,0,1,12.16,4c1.58.83,1.43,1.19,2.44,1.31l-.24-.08-2.13-1.36a47.12,47.12,0,0,0-10-3.71c3.18.35,6.09,1.21,9.35,1.83-4-1.11-7.64-2.29-11.8-2.42h0A31.63,31.63,0,0,0,94.36,65c.62-.22,1.29-.48,2-.8,8.29-3.55,13.83-4.37,22.6-5.3a63,63,0,0,0-21.09,4.29c1.94-1.42,3.72-2.68,5.59-4.32a6.87,6.87,0,0,0,.69-.74l-.4.31c-2.35,1.89-4.88,3.35-7,5.21l-.52.22c-1.2.5-2.11.9-3,1.2a11.16,11.16,0,0,0-3.41,1.22c4.56-4.1,9.93-6.48,13.06-11.14,3.35-5,3.3-6.13,4.7-6.17s-.39,3.43-.52,4.48,1.83-1.87,3.53-2.86,1.42,1.82-.32,3.95-5.27,4.83-3.6,4.72,7.16-6.08,9.56-7-2.41,3.44-1.27,3.48,6.1-3.47,6.12-1.88-2.84,3.33-2.51,3.34c0,0,5.73.22,3.81,2.09s-4.84,1.93-3.73,2.86,2.26,3.17,0,3.27-2.08-.88-5-1a32.93,32.93,0,0,0-6.8.27c-.63.24,9.26,2.3,10.13,5s-.7,2.09-.7,2.09,2.32,1.67,1.82,3.33-4.32-2.54-4.92-2.83,1.5,2.17-.17,2.19S109.16,71,104,69.84s-6.75-1.23-10-.3a59.5,59.5,0,0,1-6.26,1.66.23.23,0,0,0-.07-.23.23.23,0,0,0-.31,0c-1,.89-6.26,0-7.67-.11,1.68.45,2.92.51,4.51.93l.12,0c-5.81,1-6.6-.79-15.6,1.32S55.3,80.92,54.68,80.9s2.33-7.38,7-7.38Zm41.82-14.66Z"/><path class="cls-2" d="M76,72c4.06,0,9.33,2.73,12.91,6.22s3.4,3.49,3.72,2,2.18.52,4.37,3.52,4.56,5.38,4.09,3.68a5.54,5.54,0,0,1-.16-2.74,9.38,9.38,0,0,1,4.35,3.87c1.83,3,3.16,2.68,2.77,1.43s-.54-1.87-.54-1.87,3.74,1.37,3.88-.21a3.11,3.11,0,0,0-.87-2.5s2.88.9,3.76,1-.66-3.65-2-4.67,1.69-2.85,1.38-3.92-1.89-1.39-1.89-1.39a3.85,3.85,0,0,0,.67-1.39c.4-1.13.4-1.13-2.42-1.24s-5.24,1-2.9-.37,4.4-2,3.46-2.61-4.27.72-6.94,1.24a78.76,78.76,0,0,1-11.5.88c-2.2-.08,1.87-.37.93-1.11s-2.91-.11-6.71,0H85.29c2.37.64,5.71,1.76,9.17,3.07h0c2.83.12,5.13.59,8,.54l4.36-.14-2.17.23a51.29,51.29,0,0,1-9-.15c4,1.57,12.42,5,14,7.48a.58.58,0,0,1,.11.38.8.8,0,0,0-.16-.35c-1.07-1.47-5.23-3.59-10-5.59,4.32,3.13,5.24,4.51,8.16,9.57a4.32,4.32,0,0,1,.37.75c-2.79-4.06-5.86-9.28-10.75-11.22a126.52,126.52,0,0,0-13.17-4.57l-.21,0C80.43,71.59,76.22,71,76,72Z"/><path class="cls-3" d="M36.69,84.1c-5.41.75-11.33-4.17-12.55-8.35s-2.51-1.61-2.26-.06-.43-1.33-2.35-2.9.54,4.35-.49,3.87-3.87-3.42-4-1.74a6.38,6.38,0,0,0,.38,2.8s-4.83-.39-4.17.33,8.7,2.29,9.08,3.13-3,.74-7.22-.19-6.67-1.57-6.37-.57,2.8,2,2.54,2.29-1.6-.33-3.56.65.23,1.79.83,1.88.41.64.13,1.75-.21,1.34.63,1.35a16.45,16.45,0,0,1,3,0c.91.2-2.06,1.34-.74,1.84a3,3,0,0,0,3.18,0A37.78,37.78,0,0,1,18.55,88c1.24-.22,4.15-1.06.21,2s-3.42,3.48-2.57,3.69a2.12,2.12,0,0,0,1.46-.15s-1.4,2.15-.57,2.11a3.16,3.16,0,0,0,1.6-.65s-.08,1.08.46,1.13S20.09,95,22.53,93s5.45-4.57,4.79-3.48S26.17,92.63,27,92.1s2.46-2.21,3.29-2.78-.34.53.74.61c.21,0,1.52-2.63,3.64-3.36a2.07,2.07,0,0,1,.43-.1c-1.72-.69-4.29-1.68-6.15-1.2-2.42.63-7,2.76-8,4.76.17-1.86,5-4.18,7.48-5l-.71-.06a55,55,0,0,0-8.31-.12c-2.56.06-5,.18-7.54.14,2.52-.12,5-.27,7.53-.38a55.42,55.42,0,0,1,8.35,0c.94.08,1.81.14,2.74.24-1.5-1-2.83-1.57-4.39-2.69S23.12,80.08,21.66,79c1.73,1,2.95,1.77,4.59,2.87.48.32,5,3,5,3a19.45,19.45,0,0,1,5,1.56c1.29.21,2.54.8,2.7.71.18.2-1.37-2.8-1.66-3.35a2.1,2.1,0,0,0,.06.24A3.3,3.3,0,0,0,36.69,84.1Z"/><path class="cls-3" d="M37.69,86c1,1.87,6.06,12.33,7.93,14.72s2.09-3.17,2.05-3.51-2-.63-4.55-4.77-4.64-7.07-4.64-7.07,0-.22-.16-.56c0,0,0,0,0,0a.23.23,0,0,1-.27-.17,37.26,37.26,0,0,1,.4-9.66.26.26,0,0,1,0-.15A23.06,23.06,0,0,0,38,63.15,15.3,15.3,0,0,0,36.7,62a1,1,0,0,0-1.55,1.22l.46.85s-.69-.63-.81-.16A4,4,0,0,0,35.52,66a2.41,2.41,0,0,1,.32,1.58c0,.52-1.06-1.22-1.73-1s.25,1.76.25,1.76-.53-.25-.51.48.85.71,1.66,2.3a15.57,15.57,0,0,1,1.56,5.65,19,19,0,0,1-.39,4.5,29.39,29.39,0,0,0-4.2-7.74c-2.29-3.17-3.5-4-4.5-5.31a.14.14,0,0,1-.11-.06l-.11-.09a.23.23,0,0,1-.16-.08l-.1-.14c-3.4-2.75-6.13-2.75-10.42-1.32-3.67,1.23-7.38,3.71-10.55,4.77l-2.18.5c4.87-1.41,8-4,12.63-5.57,3.92-1.36,6.59-1.5,9.61.44-1.1-1.44-2.24-2.93-3.4-4.33-4.7-3-10.56-.78-15.76-1.63,5,.35,10.45-1.4,15,.76L22,61.08c-.19-.16-.38-.3-.57-.44a.17.17,0,0,1-.12,0c-4.44-2.3-8.07-1.14-12.9-3.17-1.54-.64-3.16-1.34-4.67-2,1.64.54,3.18,1.21,4.78,1.84,4.1,1.62,7.23,1,10.88,2.13-3.27-1.72-5.53-1.36-8.37-3.68-1.93-1.58-3.5-5.09-5.62-7.5,2.55,2.51,3.69,5.61,5.79,7.28,3.24,2.57,5.69,1.71,9.8,4.38-.7-1.09-.67-2.06-1.2-3.84a47.19,47.19,0,0,0-5.65-12.93c3.24,4.34,5.06,9.63,6.52,14.8.56,2,.07,1.28,1.15,2.46l.24.26q.6.46,1.26,1a16.56,16.56,0,0,1-1.68-5c-.48-2.79-.78-5.82-1.1-8.68-.44-1.76-1.49-5.78-1.94-5.73s-.25,3.35-.53,3-1.24-4.42-1.69-3.59a10.7,10.7,0,0,0-.59,2.41c-.18.55-1.31-3.3-2.73-3.79S12.2,42,12.2,42s-2.73-2.75-2.29-.79,2.77,4.46,2.39,4.6-2.25-1.83-1.92,0,3.17,3.69,4.63,7.41,1,5.42-1.1,2.17S11,51.93,9.83,48,7.9,43.54,7.7,44.49a9.09,9.09,0,0,1-.81,2.09S5.08,44.17,4.7,45.33a4.75,4.75,0,0,0-.16,2.18S.86,44.6.78,46.18,3.65,51.71,4.51,53s-2.35-1.42-4-.57,1.46,2.35,1.77,3-2.07-.09-1.86,1a2.51,2.51,0,0,0,2.11,1.94C3.4,58.35,7.4,59.6,5.72,60S0,60,1.35,61.3s4.44.82,5.41,1.15-2.42,1.23-1.43,1.37S9,63.06,12.39,63s6.71,0,5.55.71A36.11,36.11,0,0,1,7.78,66.22c-4.27.44-8.13-.93-6,.86s4.3,1.86,1.11,2.28-2.5,1.92-.54,1.87S2.3,72,1.26,73.3s-1.73,2.28,0,1.86,3.58-.9,3.58-.9S2.51,76.4,3.76,76.67s.9-.24,3.94-1.63,4.91-2.32,4.07-1.4-1.26,1.5-.59,1.43A8,8,0,0,0,14,73.71c1.48-.89,3.47-2.9,3.22-2s-.95,2.15-.09,1.47A20.85,20.85,0,0,0,19.4,70.7s4-2.66,6.6-1.55,6.51,5.25,8.34,9.28c.71,1.55,2.49,6.5,3.35,7.54Zm1.6-16.3a21.14,21.14,0,0,0-1.18-6.34l.26.29a5.73,5.73,0,0,0-.45-1.83c-.44-1.06-.3-1.74-.15-1.92s.71.45.71.45l-.29-1c-.27-1-1-1.85-.46-2.51s1.74,1.26,1.74,1.26,0,0-.3-1.42.3-2,1-1.5.66,2.91.91.26,2-2.38,2.35-1.45a12.67,12.67,0,0,1,.34,3.41,4.67,4.67,0,0,1,.95-1.58c.66-.68,1.26.34.83,2.06s-.7,3.49-.2,2.45,1.34-2.42,2.14-1.46-.16,1.93.3,1.66.82-.23-.46,2.81S41.7,71,43.55,69.88s5.46-3.7,6.25-3.51.08,1.29.08,1.29,1.43-.86,1.86-.45-1,1.63-.33,1.51,1.51.17.54.87l-2.4,1.71s.77-.12,1.5-.19,2.23.21,1.73.85-2.74.71-4.25,1.34-1,1.08,0,1.16,1.52.36,1,1-2.79,1.75-2.5,1.75,1.75.66,1,1.12S46.51,78.32,41.6,81a6.59,6.59,0,0,0-3.12,3.06,13.66,13.66,0,0,1,.88-4.38.26.26,0,0,0,.13-.16,2.33,2.33,0,0,1,.08-.36,19.42,19.42,0,0,1,6.33-7.75c.45-.35,3.93-2.93,4.22-3.31-1.31,1-3,2.12-4.36,3.13a20.33,20.33,0,0,0-5.69,6.11c.93-3,2.62-7,4.82-8.08-2.9.88-5.15,7.38-5.82,10.11A14.64,14.64,0,0,0,38.29,82a45,45,0,0,1,.49-7,.2.2,0,0,0,.06-.11,27.51,27.51,0,0,0,.4-3c.2-1.28.4-2.54.57-3.79.51-3.67,1.88-5.79,1.8-9.61-.23,3.88-1.51,5.95-2.07,9.6-.08.52-.16,1-.25,1.56Zm-12.69-4a18.8,18.8,0,0,1-4.65-9c-.49-2.6-.74-5.24-1.17-7.85A6.63,6.63,0,0,1,22,46c.95-1.18.48,1,.48,1s1.88-2.74,2.58-2.62.59,2,.59,2,1.54-.26,1.4,1.23A7,7,0,0,1,26,50.4s1.92-.3.87,3.73-1.79,7.43-.3,11.39C26.57,65.56,26.59,65.6,26.6,65.64Z"/><path class="cls-1" d="M117.32,24.33c-.75.46-2.42-.18-3.14.13-8.7,3.69-11.57,4-24.61,14.7-9.64,7.9-19.64,17.52-24.14,23-14.19,17.39-24.21,40.26-20.78,61.43l3.05-.19c-3.81-20.92,6.38-43.9,20.42-61.19,6.69-8.24,26.93-27.79,40.2-34a21.26,21.26,0,0,1,5.26-1.79,9.17,9.17,0,0,1,2.24-.13C120.32,26.69,116.93,24.74,117.32,24.33Z"/></g></g></svg>